<?xml version="1.0" encoding="UTF-8"?>
<svg id="Layer_1" xmlns="http://www.w3.org/2000/svg" version="1.1" viewBox="0 0 267.37 236.41">
  <!-- Generator: Adobe Illustrator 29.8.7, SVG Export Plug-In . SVG Version: 2.1.1 Build 1)  -->
  <defs>
    <style>
      .st0 {
        fill: #f1f1f1;
      }

      .st1 {
        fill: #efeeee;
      }

      .st2 {
        fill: #58595b;
      }

      .st3 {
        fill: #6d6e70;
      }

      .st4 {
        fill: #dbdada;
      }

      .st5 {
        fill: #4d4c4d;
      }

      .st6 {
        fill: #2c2c2c;
      }

      .st7 {
        fill: #d8d7ec;
      }

      .st8 {
        fill: #2b353b;
      }

      .st9 {
        isolation: isolate;
      }

      .st10 {
        fill: #b0afd7;
      }

      .st11 {
        fill: #778493;
      }

      .st12 {
        fill: #4f4f4f;
      }

      .st13 {
        fill: #bbbdbf;
      }

      .st14 {
        fill: #a4a3a3;
      }

      .st15 {
        fill: #fff;
      }

      .st16 {
        fill: #9ca5d3;
      }

      .st17 {
        fill: #b6b6b7;
      }

      .st18 {
        fill: #d0d2d3;
      }

      .st19 {
        fill: #5e5e5e;
      }

      .st20 {
        fill: #d5d5d5;
      }

      .st21 {
        fill: #6b6b6b;
      }

      .st22 {
        fill: #e7e8ee;
      }

      .st23 {
        fill: #3b4952;
      }

      .st24 {
        fill: #8488bd;
      }

      .st25 {
        fill: #1a1a1a;
      }
    </style>
  </defs>
  <g>
    <polygon class="st5" points="44.93 141.5 28.27 86.51 32.83 82.72 121.17 84 115.87 88.46 34.75 87.63 49.45 137.26 44.93 141.5"/>
    <rect class="st5" x="28.36" y="86.78" width="1.78" height="31.26"/>
  </g>
  <path class="st16" d="M247.76,157.89c0-3.11,0-9.9,0-11.58,0-.44-.68-.44-.68,0,0,.75,0,7.5,0,8.24v3.83s.68-.49.68-.49Z"/>
  <path class="st16" d="M42.66,136.07h1.84c.18,0,.34-.16.34-.34v-24.11c0-.44-.68-.44-.68,0v21.87"/>
  <path class="st16" d="M48.99,132.04h1.84c.18,0,.34-.16.34-.34v-24.11c0-.44-.68-.44-.68,0v21.87"/>
  <path class="st16" d="M55.2,129.11h1.84c.18,0,.34-.16.34-.34v-24.11c0-.44-.68-.44-.68,0v21.87"/>
  <path class="st16" d="M61.58,125.47h1.84c.18,0,.34-.16.34-.34v-24.11c0-.44-.68-.44-.68,0v21.87"/>
  <g>
    <path class="st12" d="M130.27,177.73c6.5,3.75,11.76,12.87,11.76,20.38,0,3.35-1.05,5.81-2.79,7.18-.18.14-9.93,5.79-9.93,5.79,0,0,3.68-9.23.39-11.12-3-15.55-11.75-16.14-14.52-14.42,0-3.52-2.57-3.22-2.57-3.22,0,0,9.61-5.56,9.96-5.71,2.06-.87,4.75-.56,7.69,1.14Z"/>
    <path class="st6" d="M126.61,179.86c6.5,3.75,11.76,12.87,11.76,20.38,0,3.35-1.05,5.81-2.79,7.18-.04.03,0,.01-.9.54,0-.01.17-.15.19-.16,1.74-1.36,2.79-3.82,2.79-7.18,0-7.5-5.27-16.63-11.76-20.38-2.94-1.7-5.63-2-7.69-1.14h0c.77-.44.64-.35.71-.38,2.06-.87,4.75-.56,7.69,1.14Z"/>
    <g>
      <polygon class="st6" points="118.86 179.72 120.74 178.57 121.4 178.6 119.28 180.03 117.23 180.59 115.98 181.48 115.19 181.5 116.87 180.38 118.86 179.72"/>
      <polygon class="st6" points="121.17 180.09 123.05 178.94 123.71 178.97 121.59 180.4 119.54 180.97 118.29 181.86 117.5 181.87 119.18 180.75 121.17 180.09"/>
      <polygon class="st6" points="123.39 180.92 125.27 179.78 125.92 179.8 123.81 181.24 121.75 181.8 120.51 182.69 119.71 182.7 121.4 181.58 123.39 180.92"/>
      <polygon class="st6" points="125.53 182.11 127.4 180.96 128.06 180.99 125.94 182.42 123.89 182.98 122.65 183.88 121.85 183.89 123.54 182.77 125.53 182.11"/>
      <polygon class="st6" points="127.53 183.74 129.41 182.6 130.06 182.62 127.95 184.05 125.89 184.62 124.65 185.51 123.85 185.52 125.54 184.4 127.53 183.74"/>
      <polygon class="st6" points="129.43 185.68 131.31 184.53 131.96 184.56 129.85 185.99 127.79 186.55 126.36 187.63 125.75 187.46 127.44 186.34 129.43 185.68"/>
      <polygon class="st6" points="131.33 187.9 133.15 186.89 133.8 186.92 131.75 188.21 129.62 188.8 127.86 189.99 127.42 189.78 129.27 188.58 131.33 187.9"/>
      <polygon class="st6" points="132.67 190.15 134.49 189.14 135.15 189.17 133.09 190.46 130.96 191.05 129.2 192.25 128.76 192.03 130.61 190.83 132.67 190.15"/>
      <polygon class="st6" points="133.96 192.85 135.86 192 136.51 192.08 134.35 193.2 132.19 193.61 130.33 194.66 129.91 194.41 131.85 193.37 133.96 192.85"/>
      <polygon class="st6" points="135.3 195.63 137.18 194.62 137.33 195.07 135.56 195.99 133.11 196.33 131.11 197.23 130.76 196.88 132.89 196.02 135.3 195.63"/>
      <polygon class="st6" points="135.92 198.22 137.77 197.16 137.94 197.61 136.19 198.58 133.76 198.99 131.78 199.95 131.42 199.61 133.52 198.69 135.92 198.22"/>
      <polygon class="st6" points="136.2 200.78 138.12 199.86 138.25 200.31 136.44 201.15 133.98 201.39 131.94 202.2 131.61 201.84 133.77 201.07 136.2 200.78"/>
      <polygon class="st6" points="136.01 203.05 137.9 202.05 138.05 202.51 136.27 203.41 133.82 203.74 131.81 204.63 131.47 204.28 133.6 203.43 136.01 203.05"/>
      <polygon class="st6" points="135.32 205.35 137.22 204.39 137.37 204.85 135.58 205.73 133.12 206.01 131.1 206.87 130.76 206.52 132.9 205.7 135.32 205.35"/>
      <polygon class="st6" points="132.65 207.85 134.92 207.3 135.86 206.71 136.28 206.47 135.11 207.63 132.8 208.15 131.48 208.92 131.83 208.23 132.65 207.85"/>
    </g>
    <path class="st25" d="M118.97,182.16c-.12.7-.19,1.46-.19,2.27,0,7.41,5.2,16.43,11.62,20.13.74.42,1.45.76,2.15,1.01-.97,5.71-5.72,7.74-11.44,4.44-6.42-3.71-11.62-12.72-11.62-20.13,0-6.57,4.08-9.67,9.47-7.72Z"/>
    <path class="st14" d="M122.23,186.53c4.55,2.63,8.26,9.05,8.26,14.31s-3.71,7.4-8.26,4.77c-4.55-2.63-8.26-9.05-8.26-14.31s3.71-7.4,8.26-4.77Z"/>
    <g>
      <path class="st6" d="M121.27,177.32c.22-.12.42-.24.59-.33l-.28.67-1.24.89h-.8s1.69-1.11,1.69-1.11l.04-.13Z"/>
      <path class="st6" d="M124.22,176.34l.28-.2c.21-.02.43-.03.65-.02l-.57.38-.61,1.47-1.24.89-.55-.15,1.44-.96.59-1.42Z"/>
      <path class="st6" d="M126.66,176.69l.47-.29c.19.05.39.11.58.17l-.63.43-.61,1.47-1.24.89h-.8s1.69-1.11,1.69-1.11l.54-1.57Z"/>
      <path class="st6" d="M128.7,177.83l.82-.5c.15.08.3.15.45.24l-.85.58-.61,1.47-1.24.89h-.8s1.69-1.11,1.69-1.11l.54-1.57Z"/>
      <path class="st6" d="M130.74,179.38l1.06-.65c.12.09.25.18.37.27l-1.02.69-.61,1.47-1.24.89-.7-.05,1.59-1.06.54-1.57Z"/>
      <path class="st6" d="M132.84,180.96l.95-.58c.11.1.22.21.32.31l-.86.58-.61,1.47-1.43,1.08-.61-.17,1.69-1.12.54-1.57Z"/>
      <path class="st6" d="M134.89,183.28l1.06-.59c.09.11.18.22.26.33l-.9.57-.68,1.5-1.76,1.2-.44-.22,1.85-1.2.62-1.59Z"/>
      <path class="st6" d="M136.37,185.44l1.15-.64c.08.11.16.23.23.34l-.97.61-.68,1.5-1.76,1.2-.44-.22,1.85-1.2.62-1.59Z"/>
      <path class="st6" d="M137.88,188.37l1.38-.62c.06.12.12.24.18.36l-1.17.61-.72,1.32-1.85,1.05-.42-.25,1.94-1.04.66-1.42Z"/>
      <path class="st6" d="M139.58,191.17l.98-.52c.05.14.11.29.16.43l-.87.45-1,1.25-2,.9-.35-.35,2.13-.86.97-1.31Z"/>
      <path class="st6" d="M140.22,193.77l1.13-.64c.04.15.08.31.12.46l-.97.54-.99,1.32-1.98.96-.36-.34,2.1-.92.95-1.38Z"/>
      <path class="st6" d="M140.88,196.6l1.04-.5c.02.16.04.32.05.48l-.85.39-1.01,1.14-2.04.82-.33-.36,2.16-.77.98-1.2Z"/>
      <path class="st6" d="M140.86,199.11l1.16-.61c0,.18-.01.36-.02.53l-.88.45-1,1.24-2.01.89-.35-.35,2.13-.85.97-1.29Z"/>
      <path class="st6" d="M140.58,201.32l1.21-.61c-.04.2-.08.39-.13.58l-.83.41-1.01,1.2-2.02.86-.34-.36,2.14-.81.97-1.26Z"/>
      <path class="st6" d="M138.38,204.83l1.43-1.08,1.03-.37c-.13.23-.26.44-.4.64l-.5.15-1.44,1.07-1.78.91.35-.69,1.31-.63Z"/>
    </g>
    <path class="st0" d="M122.24,187.32c4.16,2.4,7.54,8.25,7.54,13.06,0,4.81-3.38,6.76-7.54,4.35-4.16-2.4-7.54-8.25-7.54-13.06s3.38-6.76,7.54-4.35Z"/>
    <path class="st4" d="M122.24,192.45c1.71.99,3.1,3.4,3.1,5.38s-1.39,2.78-3.1,1.79c-1.71-.99-3.1-3.4-3.1-5.38s1.39-2.78,3.1-1.79Z"/>
    <g>
      <path class="st19" d="M123.24,194.11c.21.22.3.55.21.74-.09.19-.33.16-.53-.06-.21-.22-.3-.55-.21-.74.09-.19.33-.16.53.06Z"/>
      <path class="st19" d="M121.22,193.56c.16.27.16.57,0,.67-.16.09-.41-.05-.57-.32-.16-.27-.16-.57,0-.67.16-.09.41.05.57.32Z"/>
      <path class="st19" d="M120.44,195.46c.2.01.44.26.54.54.09.29,0,.51-.2.5-.2-.01-.44-.26-.54-.54-.09-.29,0-.51.2-.5Z"/>
      <path class="st19" d="M122.51,197.81c.22.05.44.33.5.61.06.28-.07.47-.28.42-.22-.05-.44-.33-.5-.61-.06-.28.06-.47.28-.42Z"/>
      <path class="st19" d="M124.07,196.92c.22.18.36.51.31.74-.05.23-.26.26-.48.08-.22-.18-.36-.51-.31-.74.05-.23.26-.26.48-.08Z"/>
    </g>
    <g>
      <path class="st19" d="M122.24,189c1.04.6,1.45,1.08,1.45,1.54,0,.62-.55,1.93-1.45,1.41-.9-.52-1.43-2.45-1.42-3.06,0-.46.38-.49,1.42.12Z"/>
      <path class="st19" d="M125.16,192.1c.28-.16.7.21,1.44,1.49.74,1.28.88,1.86.59,2.02-.37.23-1.76.12-2.4-.98-.64-1.1-.01-2.32.37-2.53Z"/>
      <path class="st19" d="M127.78,197.66c.4.23.61.79.61,1.99s-.21,1.55-.61,1.32c-.54-.3-1.94-1.76-1.94-2.8,0-1.04,1.41-.84,1.94-.52Z"/>
      <path class="st19" d="M124.79,200.51c.64-.37,2,1.14,2.38,1.8.28.49.16.9-.57,1.33-.74.43-1.17.33-1.46-.15-.38-.65-.98-2.6-.35-2.97Z"/>
      <path class="st19" d="M122.24,200.26c.9.52,1.43,2.45,1.42,3.06,0,.46-.38.49-1.42-.12-1.04-.6-1.45-1.08-1.45-1.54,0-.62.55-1.93,1.45-1.41Z"/>
      <path class="st19" d="M117.3,196.59c.37-.23,1.76-.12,2.4.98.64,1.1.01,2.32-.37,2.53-.28.16-.7-.21-1.44-1.49-.74-1.28-.88-1.86-.59-2.02Z"/>
      <path class="st19" d="M116.7,191.23c.54.3,1.94,1.76,1.94,2.8s-1.41.84-1.94.52c-.4-.23-.61-.79-.61-1.99s.21-1.55.61-1.32Z"/>
      <path class="st19" d="M117.9,188.57c.74-.43,1.17-.33,1.46.15.38.65.98,2.6.35,2.97-.64.37-2-1.14-2.38-1.8-.28-.49-.16-.9.57-1.33Z"/>
    </g>
    <path class="st6" d="M109.36,189.8c0,7.5,5.27,16.63,11.76,20.38,6.5,3.75,11.77.71,11.77-6.79,0-7.5-5.27-16.62-11.77-20.38-6.5-3.75-11.76-.71-11.76,6.79ZM112.86,191.82c0-5.26,3.71-7.4,8.26-4.77,4.55,2.63,8.26,9.05,8.26,14.31s-3.71,7.4-8.26,4.77c-4.55-2.63-8.26-9.05-8.26-14.31Z"/>
  </g>
  <g>
    <polyline class="st5" points="109.29 176.26 109.29 183.21 121.08 176.32"/>
    <polygon class="st5" points="66.23 157.39 78.03 150.5 72.19 148.16 66.23 150.44 66.23 157.39"/>
    <path class="st21" d="M66.23,157.97c-.05.19-3.11-1.65-3.11-1.46l-7.87-4.53v-20.7l123.25,75.55v15.98c0,.17,0,.35,0,.53l-37.87-22.25c0-.15,0-.31,0-.47,0-8.67-6.19-19.42-13.75-23.89-7.56-4.47-14.29.76-17.62,6.32-.11.19,0-.22,0,0l-13.54-7.79c0-.13,0-.25,0-.38"/>
    <g>
      <polygon class="st1" points="255.54 162.09 255.54 170.73 178.51 214.64 178.51 206.26 255.54 162.09"/>
      <polygon class="st17" points="255.54 162.67 116.9 82.13 40.2 126.3 178.51 206.84 255.54 162.67"/>
      <polygon class="st20" points="40.2 126.3 40.2 135.79 95.43 167.29 95.43 167.29 178.51 214.64 178.51 206.26 40.2 126.3"/>
    </g>
  </g>
  <polygon class="st5" points="178.51 214.64 255.54 170.73 255.54 177.5 178.52 223.34 178.51 214.64"/>
  <g>
    <g>
      <g>
        <path class="st16" d="M16.45,172.11h1.84c.18,0,.34-.16.34-.34v-24.11c0-.44-.68-.44-.68,0v24.11c.11-.11.23-.23.34-.34h-1.84c-.44,0-.44.68,0,.68h0Z"/>
        <path class="st16" d="M20.24,166.6h1.84c.18,0,.34-.16.34-.34v-23.83c0-.44-.68-.44-.68,0v23.83c.11-.11.23-.23.34-.34h-1.84c-.44,0-.44.68,0,.68h0Z"/>
        <path class="st16" d="M24.49,158.86h1.84c.18,0,.34-.16.34-.34v-22.83c0-.44-.68-.44-.68,0v22.83c.11-.11.23-.23.34-.34h-1.84c-.44,0-.44.68,0,.68h0Z"/>
        <path class="st16" d="M28.31,152.36h1.84c.18,0,.34-.16.34-.34v-22.83c0-.44-.68-.44-.68,0v22.83c.11-.11.23-.23.34-.34h-1.84c-.44,0-.44.68,0,.68h0Z"/>
        <path class="st16" d="M32.69,143.95h1.84c.18,0,.34-.16.34-.34v-22.83c0-.44-.68-.44-.68,0v22.83l.34-.34h-1.84c-.44,0-.44.68,0,.68h0Z"/>
        <path class="st16" d="M37.02,137.12h1.84c.18,0,.34-.16.34-.34-.02-1.8-.04-3.6-.06-5.4-.03-2.87-.07-11.75-.1-14.62,0-.66-.02-1.33-.02-1.99,0-.44-.69-.44-.68,0,.02,1.8.04,9.6.06,11.4.03,2.87.07,5.75.1,8.62,0,.66.02,1.33.02,1.99.11-.11.23-.23.34-.34h-1.84c-.44,0-.44.68,0,.68h0Z"/>
      </g>
      <path class="st23" d="M37.97,114.07c-.28.45-.56.91-.83,1.36-.75,1.21-1.49,2.43-2.24,3.64l-3.26,5.3c-1.3,2.12-2.6,4.23-3.9,6.35-1.39,2.26-2.77,4.51-4.16,6.77-1.35,2.2-2.7,4.4-4.05,6.6-1.18,1.92-2.35,3.83-3.53,5.75-.88,1.44-1.76,2.87-2.64,4.31-.46.75-.92,1.5-1.38,2.25-.16.27-.23.53-.23.85v10.65c0,1.05,1.63,1.05,1.63,0v-10.91c-.04.14-.07.27-.11.41.23-.38.47-.76.7-1.14.63-1.03,1.27-2.06,1.9-3.09.94-1.52,1.87-3.05,2.81-4.57,3.98-6.48,4.77-7.77,3.43-5.58,1.25-2.04,2.5-4.08,3.75-6.11,1.26-2.06,2.53-4.11,3.79-6.17,1.18-1.92,2.35-3.84,3.53-5.75.99-1.62,1.99-3.24,2.98-4.86.71-1.16,1.43-2.32,2.14-3.48.34-.55.7-1.1,1.02-1.66.01-.02.03-.05.04-.07.55-.9-.86-1.72-1.41-.82h0Z"/>
    </g>
    <path class="st15" d="M48.94,128.03"/>
    <path class="st15" d="M80.92,123.68"/>
    <g class="st9">
      <polygon class="st15" points="33.36 179.92 15.3 169.43 19.46 167.02 37.52 177.52 33.36 179.92"/>
      <polygon class="st15" points="37.51 172.74 19.45 162.24 23.61 159.83 41.67 170.33 37.51 172.74"/>
      <polygon class="st15" points="41.66 165.55 23.6 155.05 27.76 152.64 45.82 163.14 41.66 165.55"/>
      <polygon class="st15" points="49.97 155.96 45.81 158.36 37.51 153.54 35.9 152.6 27.75 147.86 31.91 145.46 49.97 155.96"/>
      <polygon class="st15" points="49.96 151.17 31.89 140.68 36.06 138.27 54.12 148.77 49.96 151.17"/>
      <polygon class="st15" points="54.1 143.99 36.04 133.49 40.21 131.09 58.27 141.59 54.1 143.99"/>
    </g>
    <polyline class="st11" points="62.14 140.2 57.47 148.81 41.05 179.09 32.59 184.11 23.99 179.25 15.31 174.21 15.3 169.43 33.36 179.92 37.52 177.52 19.46 167.02 19.45 162.23 37.51 172.74 41.67 170.33 23.61 159.83 23.6 155.05 41.66 165.55 45.82 163.14 27.76 152.64 27.75 147.86 45.81 158.36 49.97 155.96 31.91 145.46 31.89 140.68 49.96 151.17 54.12 148.77 36.06 138.28 36.05 137.3 36.04 133.49 54.1 143.99 58.27 141.59 58.27 141.58 40.22 131.09 40.21 126.31 62.67 139.28"/>
    <path class="st22" d="M42.64,151.91c-.02.41-1.5,1.04-3.36,1.44-.59.13-1.21.19-1.77.19l-1.61-.94c.76-.32,2.13-.65,3.38-.86,1.96-.34,3.39-.42,3.36.17Z"/>
    <g>
      <g>
        <path class="st16" d="M36.04,180.54h1.84c.18,0,.34-.16.34-.34v-22.11c0-.44-.68-.44-.68,0v22.11c.11-.11.23-.23.34-.34h-1.84c-.44,0-.44.68,0,.68h0Z"/>
        <path class="st16" d="M39.83,175.04h1.84c.18,0,.34-.16.34-.34v-20.83c0-.44-.68-.44-.68,0v20.83c.11-.11.23-.23.34-.34h-1.84c-.44,0-.44.68,0,.68h0Z"/>
        <path class="st16" d="M44.08,167.3h1.84c.18,0,.34-.16.34-.34v-20.83c0-.44-.68-.44-.68,0v20.83c.11-.11.23-.23.34-.34h-1.84c-.44,0-.44.68,0,.68h0Z"/>
        <path class="st16" d="M47.9,160.8h1.84c.18,0,.34-.16.34-.34v-20.83c0-.44-.68-.44-.68,0v20.83l.34-.34h-1.84c-.44,0-.44.68,0,.68h0Z"/>
        <path class="st16" d="M52.28,152.38h1.84c.18,0,.34-.16.34-.34v-20.83c0-.44-.68-.44-.68,0v20.83c.11-.11.23-.23.34-.34h-1.84c-.44,0-.44.68,0,.68h0Z"/>
        <path class="st16" d="M56.61,145.55h1.84c.18,0,.34-.16.34-.34-.02-1.8-.04-3.6-.06-5.4-.03-2.87-.07-9.75-.1-12.62,0-.66-.02-1.33-.02-1.99,0-.44-.68-.44-.68,0,.02,1.8.04,7.6.06,9.4.03,2.87.07,5.75.1,8.62,0,.66.02,1.33.02,1.99l.34-.34h-1.84c-.44,0-.44.68,0,.68h0Z"/>
      </g>
      <path class="st23" d="M57.56,124.79l-.83,1.36c-.75,1.21-1.49,2.43-2.24,3.64-1.09,1.77-2.17,3.54-3.26,5.3-1.3,2.12-2.6,4.23-3.9,6.35-1.39,2.26-2.77,4.51-4.16,6.77-1.35,2.2-2.7,4.4-4.05,6.6-1.18,1.92-2.35,3.83-3.53,5.75-.88,1.44-1.76,2.87-2.64,4.31-.46.75-.92,1.5-1.38,2.25-.16.27-.23.53-.23.85v8.36c0,1.05,1.63,1.05,1.63,0v-8.61c-.04.14-.07.27-.11.41.23-.38.47-.76.7-1.14.63-1.03,1.27-2.06,1.9-3.09l2.81-4.57c1.14-1.86,2.28-3.72,3.43-5.58,1.25-2.04,2.5-4.08,3.75-6.11,1.26-2.06,2.53-4.11,3.79-6.17,1.18-1.92,2.35-3.84,3.53-5.75.99-1.62,1.99-3.24,2.98-4.86.71-1.16,1.43-2.32,2.14-3.48.34-.55.7-1.1,1.02-1.66.01-.02.03-.05.04-.07.55-.9-.86-1.72-1.41-.82h0Z"/>
    </g>
  </g>
  <polygon class="st23" points="75.43 94.26 38.86 115.49 38.11 114.19 74.68 92.97 75.43 94.26"/>
  <polygon class="st23" points="255.54 149.55 244.11 143.08 244.11 144.48 255.54 150.91 255.54 149.55"/>
  <path class="st16" d="M202.91,192.92c0-3.11,0-9.9,0-11.58,0-.44-.68-.44-.68,0,0,.75,0,7.5,0,8.24v3.83s.68-.49.68-.49Z"/>
  <path class="st16" d="M210.58,188.5c0-3.11,0-9.9,0-11.58,0-.44-.68-.44-.68,0,0,.75,0,7.5,0,8.24v3.83s.68-.49.68-.49Z"/>
  <path class="st16" d="M218.02,184.17c0-3.11,0-9.9,0-11.58,0-.44-.68-.44-.68,0,0,.75,0,7.5,0,8.24v3.83s.68-.49.68-.49Z"/>
  <path class="st16" d="M225.46,179.99c0-3.11,0-9.9,0-11.58,0-.44-.68-.44-.68,0,0,.75,0,7.5,0,8.24v3.83s.68-.49.68-.49Z"/>
  <path class="st16" d="M232.89,175.7c0-3.11,0-9.9,0-11.58,0-.44-.68-.44-.68,0,0,.75,0,7.5,0,8.24v3.83s.68-.49.68-.49Z"/>
  <path class="st16" d="M240.33,171.34c0-3.11,0-9.9,0-11.58,0-.44-.68-.44-.68,0,0,.75,0,7.5,0,8.24v3.83s.68-.49.68-.49Z"/>
  <path class="st16" d="M247.76,167.01c0-3.11,0-9.9,0-11.58,0-.44-.68-.44-.68,0,0,.75,0,7.5,0,8.24v3.83s.68-.49.68-.49Z"/>
  <path class="st16" d="M255.54,162.67c0-3.11,0-9.9,0-11.58,0-.44-.68-.44-.68,0,0,.75,0,7.5,0,8.24v3.83s.68-.49.68-.49Z"/>
  <g>
    <g>
      <polygon class="st18" points="174.65 115.46 65.05 52.18 134.79 11.91 244.39 75.19 174.65 115.46"/>
      <polygon class="st2" points="235.61 75.14 232.69 76.81 134.89 20.36 76.77 53.93 73.83 52.24 134.89 16.99 235.61 75.14"/>
    </g>
    <g>
      <polygon class="st3" points="174.65 195.99 65.05 132.71 65.05 52.18 174.65 115.46 174.65 195.99"/>
      <g>
        <polygon class="st23" points="139.94 175.95 174.65 195.99 174.65 126.08 139.94 106.04 139.94 175.95"/>
        <polygon class="st10" points="139.94 114.94 174.65 134.98 174.65 126.08 139.94 106.04 139.94 114.94"/>
        <g>
          <path class="st23" d="M153.37,115.69l.58,3.23.13.88.13-.72.5-2.63.97.56.52,3.2.13.88.14-.7.58-2.59.93.54-1.23,4.35-.88-.51-.53-3.27-.15-1.07-.15.89-.53,2.66-.85-.49-1.24-5.78.97.56Z"/>
          <path class="st23" d="M158.94,119.44c.35-.21.8-.16,1.35.15.73.42,1.26,1.01,1.6,1.76.19.42.29.79.3,1.12l-.92-.53c-.06-.28-.13-.5-.22-.68-.16-.31-.41-.56-.73-.75-.33-.19-.58-.18-.77.02-.19.2-.28.59-.28,1.15s.1,1.05.3,1.45c.2.4.45.69.76.86.31.18.55.2.72.05.09-.08.17-.23.23-.46l.91.53c-.08.51-.28.84-.6,1s-.74.09-1.24-.2c-.62-.36-1.11-.88-1.47-1.55-.36-.68-.54-1.42-.54-2.24,0-.88.2-1.45.61-1.69Z"/>
        </g>
        <polygon class="st8" points="168.27 192.31 146.32 179.63 146.32 124.61 168.27 137.29 168.27 192.31"/>
        <polygon class="st23" points="166.9 189.95 147.69 178.86 147.69 126.97 166.9 138.06 166.9 189.95"/>
      </g>
      <g>
        <polygon class="st10" points="65.05 71.7 99.75 91.74 99.75 82.84 65.05 62.8 65.05 71.7"/>
        <g>
          <path class="st23" d="M78.48,72.45l.58,3.23.13.88.13-.72.5-2.63.97.56.52,3.2.13.88.14-.7.58-2.59.93.54-1.23,4.35-.88-.51-.53-3.27-.15-1.07-.15.89-.53,2.66-.85-.49-1.24-5.78.97.56Z"/>
          <path class="st23" d="M84.05,76.2c.35-.21.8-.16,1.35.15.73.42,1.26,1.01,1.6,1.76.19.42.29.79.3,1.12l-.92-.53c-.06-.28-.13-.5-.22-.68-.16-.31-.41-.56-.73-.75-.33-.19-.58-.18-.77.02-.19.2-.28.59-.28,1.15s.1,1.05.3,1.45c.2.4.45.68.76.86.31.18.55.2.72.05.09-.08.17-.23.23-.46l.91.53c-.08.51-.28.84-.6,1s-.74.09-1.24-.2c-.62-.36-1.11-.88-1.47-1.55-.36-.68-.54-1.42-.54-2.24,0-.88.2-1.45.61-1.69Z"/>
        </g>
        <polygon class="st8" points="93.38 149.06 71.43 136.39 71.43 81.37 93.38 94.05 93.38 149.06"/>
        <polygon class="st23" points="92 146.71 72.8 135.62 72.8 83.73 92 94.82 92 146.71"/>
        <polygon class="st23" points="65.05 132.71 99.75 152.75 99.75 82.84 65.05 62.8 65.05 132.71"/>
      </g>
    </g>
    <g>
      <polygon class="st13" points="244.39 155.72 174.65 195.99 174.65 115.46 244.39 75.19 244.39 155.72"/>
      <polygon class="st8" points="174.65 195.99 209.36 175.95 209.36 106.04 174.65 126.08 174.65 195.99"/>
      <polygon class="st24" points="174.65 134.98 209.36 114.94 209.36 106.04 174.65 126.08 174.65 134.98"/>
      <polygon class="st24" points="174.65 170.88 209.36 150.84 209.36 118.04 174.65 138.08 174.65 170.88"/>
      <polygon class="st10" points="197.92 150.05 186.09 156.88 186.09 138.87 197.92 132.04 197.92 150.05"/>
      <polygon class="st10" points="204.48 136.44 199.99 139.04 199.99 133.17 204.48 130.57 204.48 136.44"/>
      <polygon class="st10" points="207.73 141.94 203.23 144.53 203.23 138.66 207.73 136.07 207.73 141.94"/>
      <polygon class="st8" points="201.6 116.27 182.41 127.34 182.41 124.76 201.6 113.69 201.6 116.27"/>
    </g>
    <g class="st9">
      <path class="st10" d="M162.64,161.52s.08-.03.12-.04c-.05.01-.1.03-.14.05,0,0,.02-.01.03-.01Z"/>
      <path class="st7" d="M166.25,163.15c0,.42-.16.72-.4.86l-1.37.79c.06-.03.12-.08.17-.14.02-.03.04-.05.06-.08.03-.03.04-.06.06-.1.06-.14.1-.32.1-.53,0-.85-.59-1.88-1.33-2.31-.21-.12-.42-.18-.6-.18-.06,0-.12,0-.18.03-.04,0-.08.02-.12.04l1.32-.77c.24-.14.58-.12.95.09.73.43,1.33,1.46,1.33,2.31Z"/>
      <path class="st10" d="M164.87,163.95c0,.21-.04.39-.1.53-.02.04-.04.07-.06.1-.02.03-.04.06-.06.08-.05.06-.1.1-.17.14-.24.14-.58.12-.95-.09-.74-.43-1.34-1.46-1.34-2.31,0-.44.16-.74.42-.87,0,0,.02-.01.03-.01.04-.02.08-.03.12-.04.06-.02.12-.03.18-.03.18,0,.39.06.6.18.74.43,1.34,1.46,1.33,2.31Z"/>
    </g>
    <g class="st9">
      <path class="st10" d="M72.92,110.45s.08-.03.12-.04c-.05.01-.1.03-.14.05,0,0,.02-.01.03-.01Z"/>
      <path class="st7" d="M76.53,112.08c0,.42-.16.72-.4.86l-1.37.79c.07-.03.12-.08.17-.14.02-.03.04-.05.06-.08.03-.03.04-.06.06-.1.07-.14.1-.32.1-.53,0-.85-.59-1.88-1.33-2.31-.21-.12-.42-.18-.6-.18-.06,0-.12,0-.18.03-.04,0-.08.02-.12.04l1.32-.77c.24-.14.58-.12.95.09.73.43,1.33,1.46,1.33,2.31Z"/>
      <path class="st10" d="M75.15,112.88c0,.21-.04.39-.1.53-.02.04-.04.07-.06.1-.02.03-.04.06-.06.08-.05.06-.1.1-.17.14-.24.14-.58.12-.95-.09-.74-.43-1.34-1.46-1.34-2.31,0-.44.16-.74.42-.87,0,0,.02-.01.03-.01.04-.02.08-.03.12-.04.06-.02.12-.03.18-.03.18,0,.39.06.6.18.74.43,1.34,1.46,1.33,2.31Z"/>
    </g>
  </g>
  <path class="st16" d="M178,206.36v-11.58c0-.44.68-.44.68,0v12.07l-.68-.49Z"/>
  <path class="st16" d="M170.11,201.36v-11.58c0-.44.68-.44.68,0v12.07l-.68-.49Z"/>
  <path class="st16" d="M162.22,196.79v-11.58c0-.44.68-.44.68,0v12.07l-.68-.49Z"/>
  <path class="st16" d="M154.72,192.38v-11.58c0-.44.68-.44.68,0v12.07l-.68-.49Z"/>
  <path class="st16" d="M147.53,188.4v-11.58c0-.44.68-.44.68,0v12.07l-.68-.49Z"/>
  <path class="st16" d="M140.38,184.31v-11.58c0-.44.68-.44.68,0v12.07l-.68-.49Z"/>
  <path class="st16" d="M133.46,180.18v-11.58c0-.44.68-.44.68,0v12.07l-.68-.49Z"/>
  <path class="st16" d="M126.28,176v-11.58c0-.44.68-.44.68,0v12.07l-.68-.49Z"/>
  <path class="st16" d="M119.2,171.91v-11.58c0-.44.68-.44.68,0v12.07l-.68-.49Z"/>
  <path class="st16" d="M111.94,167.72v-11.58c0-.44.68-.44.68,0v12.07l-.68-.49Z"/>
  <path class="st16" d="M104.52,163.41v-11.58c0-.44.68-.44.68,0v12.07l-.68-.49Z"/>
  <path class="st16" d="M97.78,159.55v-11.58c0-.44.68-.44.68,0v12.07l-.68-.49Z"/>
  <path class="st16" d="M90.9,155.58v-11.58c0-.44.68-.44.68,0v12.07l-.68-.49Z"/>
  <path class="st16" d="M83.98,151.61v-11.58c0-.44.68-.44.68,0v12.07l-.68-.49Z"/>
  <path class="st16" d="M77.05,147.5v-11.58c0-.44.68-.44.68,0v12.07l-.68-.49Z"/>
  <path class="st16" d="M70.6,143.99v-11.58c0-.44.68-.44.68,0v12.07l-.68-.49Z"/>
  <path class="st16" d="M63.76,139.94v-11.58c0-.44.68-.44.68,0v12.07l-.68-.49Z"/>
  <polygon class="st23" points="178.14 194.9 57.31 125.35 58.07 124.06 178.9 193.6 178.14 194.9"/>
  <path class="st16" d="M187.55,201.64c0-3.11,0-9.9,0-11.58,0-.44-.68-.44-.68,0,0,.75,0,7.5,0,8.24v3.83s.68-.49.68-.49Z"/>
  <path class="st16" d="M195.23,197.41c0-3.11,0-9.9,0-11.58,0-.44-.68-.44-.68,0,0,.75,0,7.5,0,8.24v3.83s.68-.49.68-.49Z"/>
  <polygon class="st23" points="255.54 151.28 178.24 195.08 177.49 193.78 255.54 149.55 255.54 151.28"/>
</svg>