<?xml version="1.0" encoding="UTF-8"?>
<svg id="Layer_1" xmlns="http://www.w3.org/2000/svg" version="1.1" viewBox="0 0 267.37 236.41">
  <!-- Generator: Adobe Illustrator 29.8.7, SVG Export Plug-In . SVG Version: 2.1.1 Build 1)  -->
  <defs>
    <style>
      .st0 {
        fill: #f1f1f1;
      }

      .st1 {
        fill: #efeeee;
      }

      .st2 {
        fill: #dbdada;
      }

      .st3 {
        fill: #b41f24;
      }

      .st4 {
        fill: #4d4c4d;
      }

      .st5 {
        fill: #2c2c2c;
      }

      .st6 {
        fill: #d8d7ec;
      }

      .st7 {
        fill: #2b353b;
      }

      .st8 {
        isolation: isolate;
      }

      .st9 {
        fill: #b0afd7;
      }

      .st10 {
        fill: #778493;
      }

      .st11 {
        fill: #4f4f4f;
      }

      .st12 {
        fill: #a4a3a3;
      }

      .st13 {
        fill: #fff;
      }

      .st14 {
        fill: #9ca5d3;
      }

      .st15 {
        fill: #b6b6b7;
      }

      .st16 {
        fill: #5e5e5e;
      }

      .st17 {
        fill: #d5d5d5;
      }

      .st18 {
        fill: #e21e26;
      }

      .st19 {
        fill: #6b6b6b;
      }

      .st20 {
        fill: #e7e8ee;
      }

      .st21 {
        fill: #ea474f;
      }

      .st22 {
        fill: #3b4952;
      }

      .st23 {
        fill: #1a1a1a;
      }
    </style>
  </defs>
  <path class="st14" d="M247.79,153.04v-11.58c0-.44-.68-.44-.68,0v8.24c0,.94,0,2.88,0,3.83l.68-.49Z"/>
  <path class="st14" d="M42.69,131.22h1.84c.18,0,.34-.16.34-.34v-24.11c0-.44-.68-.44-.68,0v21.87"/>
  <path class="st14" d="M49.02,127.19h1.84c.18,0,.34-.16.34-.34v-24.11c0-.44-.68-.44-.68,0v21.87"/>
  <path class="st14" d="M55.23,124.26h1.84c.18,0,.34-.16.34-.34v-24.11c0-.44-.68-.44-.68,0v21.87"/>
  <path class="st14" d="M61.61,120.62h1.84c.18,0,.34-.16.34-.34v-24.11c0-.44-.68-.44-.68,0v21.87"/>
  <g>
    <path class="st11" d="M86.05,147.99c6.5,3.75,11.76,12.87,11.76,20.38,0,3.35-1.05,5.81-2.79,7.18-.18.14-9.93,5.79-9.93,5.79,0,0,3.68-9.23.39-11.12-3-15.55-11.75-16.14-14.52-14.42,0-3.52-2.57-3.22-2.57-3.22,0,0,9.61-5.56,9.96-5.71,2.06-.87,4.75-.56,7.69,1.14Z"/>
    <path class="st5" d="M82.4,150.12c6.5,3.75,11.76,12.87,11.76,20.38,0,3.35-1.05,5.81-2.79,7.18-.04.03,0,.01-.9.54,0-.01.17-.15.19-.16,1.74-1.36,2.79-3.82,2.79-7.18,0-7.5-5.27-16.63-11.76-20.38-2.94-1.7-5.63-2-7.69-1.14h0c.77-.44.64-.35.71-.38,2.06-.87,4.75-.56,7.69,1.14Z"/>
    <g>
      <polygon class="st5" points="74.65 149.98 76.52 148.83 77.18 148.85 75.06 150.29 73.01 150.85 71.77 151.74 70.97 151.76 72.66 150.63 74.65 149.98"/>
      <polygon class="st5" points="76.96 150.35 78.83 149.2 79.49 149.23 77.37 150.66 75.32 151.22 74.08 152.12 73.28 152.13 74.97 151.01 76.96 150.35"/>
      <polygon class="st5" points="79.17 151.18 81.05 150.03 81.71 150.06 79.59 151.49 77.54 152.06 76.29 152.95 75.49 152.96 77.18 151.84 79.17 151.18"/>
      <polygon class="st5" points="81.31 152.37 83.19 151.22 83.85 151.25 81.73 152.68 79.67 153.24 78.43 154.13 77.63 154.15 79.32 153.03 81.31 152.37"/>
      <polygon class="st5" points="83.31 154 85.19 152.85 85.85 152.88 83.73 154.31 81.68 154.87 80.43 155.77 79.63 155.78 81.32 154.66 83.31 154"/>
      <polygon class="st5" points="85.21 155.94 87.09 154.79 87.75 154.82 85.63 156.25 83.58 156.81 82.14 157.89 81.54 157.72 83.22 156.6 85.21 155.94"/>
      <polygon class="st5" points="87.11 158.16 88.93 157.15 89.59 157.18 87.53 158.47 85.4 159.06 83.64 160.25 83.2 160.04 85.05 158.84 87.11 158.16"/>
      <polygon class="st5" points="88.46 160.41 90.27 159.4 90.93 159.43 88.87 160.72 86.75 161.31 84.99 162.5 84.55 162.29 86.39 161.09 88.46 160.41"/>
      <polygon class="st5" points="89.75 163.11 91.64 162.26 92.29 162.34 90.14 163.46 87.97 163.87 86.11 164.91 85.69 164.66 87.63 163.62 89.75 163.11"/>
      <polygon class="st5" points="91.08 165.88 92.96 164.88 93.12 165.33 91.34 166.25 88.9 166.59 86.89 167.49 86.54 167.14 88.67 166.28 91.08 165.88"/>
      <polygon class="st5" points="91.71 168.48 93.56 167.42 93.72 167.87 91.98 168.84 89.54 169.24 87.56 170.2 87.21 169.87 89.31 168.94 91.71 168.48"/>
      <polygon class="st5" points="91.98 171.03 93.9 170.11 94.03 170.57 92.22 171.41 89.76 171.64 87.72 172.46 87.39 172.1 89.55 171.33 91.98 171.03"/>
      <polygon class="st5" points="91.8 173.3 93.68 172.31 93.83 172.76 92.05 173.67 89.6 174 87.6 174.89 87.25 174.54 89.38 173.69 91.8 173.3"/>
      <polygon class="st5" points="91.11 175.61 93.01 174.65 93.15 175.1 91.36 175.98 88.9 176.27 86.88 177.13 86.54 176.77 88.68 175.96 91.11 175.61"/>
      <polygon class="st5" points="88.44 178.1 90.7 177.56 91.65 176.96 92.06 176.73 90.89 177.89 88.58 178.4 87.27 179.17 87.62 178.49 88.44 178.1"/>
    </g>
    <path class="st23" d="M74.76,152.42c-.12.7-.19,1.46-.19,2.27,0,7.41,5.2,16.43,11.62,20.13.74.42,1.45.76,2.15,1.01-.97,5.71-5.72,7.74-11.44,4.44-6.42-3.71-11.62-12.72-11.62-20.13,0-6.57,4.08-9.67,9.47-7.72Z"/>
    <path class="st12" d="M78.01,156.79c4.55,2.63,8.26,9.05,8.26,14.31s-3.71,7.4-8.26,4.77c-4.55-2.63-8.26-9.05-8.26-14.31s3.71-7.4,8.26-4.77Z"/>
    <g>
      <path class="st5" d="M77.06,147.58c.22-.12.42-.24.59-.33l-.28.67-1.24.89h-.8s1.69-1.11,1.69-1.11l.04-.13Z"/>
      <path class="st5" d="M80,146.6l.28-.2c.21-.02.43-.03.65-.02l-.57.38-.61,1.47-1.24.89-.55-.15,1.44-.96.59-1.42Z"/>
      <path class="st5" d="M82.44,146.95l.47-.29c.19.05.39.11.58.17l-.63.43-.61,1.47-1.24.89h-.8s1.69-1.11,1.69-1.11l.54-1.57Z"/>
      <path class="st5" d="M84.49,148.09l.82-.5c.15.08.3.15.45.24l-.85.58-.61,1.47-1.24.89h-.8s1.69-1.11,1.69-1.11l.54-1.57Z"/>
      <path class="st5" d="M86.52,149.64l1.06-.65c.12.09.25.18.37.27l-1.02.69-.61,1.47-1.24.89-.7-.05,1.59-1.06.54-1.57Z"/>
      <path class="st5" d="M88.63,151.22l.95-.58c.11.1.22.21.32.31l-.86.58-.61,1.47-1.43,1.08-.61-.17,1.69-1.12.54-1.57Z"/>
      <path class="st5" d="M90.68,153.53l1.06-.59c.09.11.18.22.26.33l-.9.57-.68,1.5-1.76,1.2-.44-.22,1.85-1.2.62-1.59Z"/>
      <path class="st5" d="M92.15,155.7l1.15-.64c.08.11.16.23.23.34l-.97.61-.68,1.5-1.76,1.2-.44-.22,1.85-1.2.62-1.59Z"/>
      <path class="st5" d="M93.67,158.63l1.38-.62c.06.12.12.24.18.36l-1.17.61-.72,1.32-1.85,1.05-.42-.25,1.94-1.04.66-1.42Z"/>
      <path class="st5" d="M95.37,161.43l.98-.52c.05.14.11.29.16.43l-.87.45-1,1.25-2,.9-.35-.35,2.13-.86.97-1.31Z"/>
      <path class="st5" d="M96.01,164.03l1.13-.64c.04.15.08.31.12.46l-.97.54-.99,1.32-1.98.96-.36-.34,2.1-.92.95-1.38Z"/>
      <path class="st5" d="M96.66,166.86l1.04-.5c.02.16.04.32.05.48l-.85.39-1.01,1.14-2.04.82-.33-.36,2.16-.77.98-1.2Z"/>
      <path class="st5" d="M96.65,169.37l1.16-.61c0,.18-.01.36-.02.53l-.88.45-1,1.24-2.01.89-.35-.35,2.13-.85.97-1.29Z"/>
      <path class="st5" d="M96.36,171.58l1.21-.61c-.04.2-.08.39-.13.58l-.83.41-1.01,1.2-2.02.86-.34-.36,2.14-.81.97-1.26Z"/>
      <path class="st5" d="M94.17,175.09l1.43-1.08,1.03-.37c-.13.23-.26.44-.4.64l-.5.15-1.44,1.07-1.78.91.35-.69,1.31-.63Z"/>
    </g>
    <path class="st0" d="M78.03,157.58c4.16,2.4,7.54,8.25,7.54,13.06,0,4.81-3.38,6.76-7.54,4.35-4.16-2.4-7.54-8.25-7.54-13.06s3.38-6.76,7.54-4.35Z"/>
    <path class="st2" d="M78.03,162.71c1.71.99,3.1,3.4,3.1,5.38s-1.39,2.78-3.1,1.79c-1.71-.99-3.1-3.4-3.1-5.38s1.39-2.78,3.1-1.79Z"/>
    <g>
      <path class="st16" d="M79.02,164.37c.21.22.3.55.21.74-.09.19-.33.16-.53-.06-.21-.22-.3-.55-.21-.74.09-.19.33-.16.53.06Z"/>
      <path class="st16" d="M77,163.81c.16.27.16.57,0,.67-.16.09-.41-.05-.57-.32-.16-.27-.16-.57,0-.67.16-.09.41.05.57.32Z"/>
      <path class="st16" d="M76.22,165.72c.2.01.44.26.54.54.09.29,0,.51-.2.5-.2-.01-.44-.26-.54-.54-.09-.29,0-.51.2-.5Z"/>
      <path class="st16" d="M78.3,168.06c.22.05.44.33.5.61.06.28-.07.47-.28.42-.22-.05-.44-.33-.5-.61-.06-.28.06-.47.28-.42Z"/>
      <path class="st16" d="M79.85,167.18c.22.18.36.51.31.74-.05.23-.26.26-.48.08-.22-.18-.36-.51-.31-.74.05-.23.26-.26.48-.08Z"/>
    </g>
    <g>
      <path class="st16" d="M78.03,159.26c1.04.6,1.45,1.08,1.45,1.54,0,.62-.55,1.93-1.45,1.41-.9-.52-1.43-2.45-1.42-3.06,0-.46.38-.49,1.42.12Z"/>
      <path class="st16" d="M80.94,162.36c.28-.16.7.21,1.44,1.49.74,1.28.88,1.86.59,2.02-.37.23-1.76.12-2.4-.98-.64-1.1-.01-2.32.37-2.53Z"/>
      <path class="st16" d="M83.57,167.92c.4.23.61.79.61,1.99s-.21,1.55-.61,1.32c-.54-.3-1.94-1.76-1.94-2.8,0-1.04,1.41-.84,1.94-.52Z"/>
      <path class="st16" d="M80.57,170.77c.64-.37,2,1.14,2.38,1.8.28.49.16.9-.57,1.33-.74.43-1.17.33-1.46-.15-.38-.65-.98-2.6-.35-2.97Z"/>
      <path class="st16" d="M78.03,170.52c.9.52,1.43,2.45,1.42,3.06,0,.46-.38.49-1.42-.12-1.04-.6-1.45-1.08-1.45-1.54,0-.62.55-1.93,1.45-1.41Z"/>
      <path class="st16" d="M73.08,166.85c.37-.23,1.76-.12,2.4.98.64,1.1.01,2.32-.37,2.53-.28.16-.7-.21-1.44-1.49-.74-1.28-.88-1.86-.59-2.02Z"/>
      <path class="st16" d="M72.49,161.49c.54.3,1.94,1.76,1.94,2.8s-1.41.84-1.94.52c-.4-.23-.61-.79-.61-1.99s.21-1.55.61-1.32Z"/>
      <path class="st16" d="M73.68,158.83c.74-.43,1.17-.33,1.46.15.38.65.98,2.6.35,2.97-.64.37-2-1.14-2.38-1.8-.28-.49-.16-.9.57-1.33Z"/>
    </g>
    <path class="st5" d="M65.14,160.06c0,7.5,5.27,16.63,11.76,20.38,6.5,3.75,11.77.71,11.77-6.79,0-7.5-5.27-16.62-11.77-20.38-6.5-3.75-11.76-.71-11.76,6.79ZM68.65,162.08c0-5.26,3.71-7.4,8.26-4.77,4.55,2.63,8.26,9.05,8.26,14.31s-3.71,7.4-8.26,4.77c-4.55-2.63-8.26-9.05-8.26-14.31Z"/>
  </g>
  <g>
    <path class="st11" d="M130.3,172.88c6.5,3.75,11.76,12.87,11.76,20.38,0,3.35-1.05,5.81-2.79,7.18-.18.14-9.93,5.79-9.93,5.79,0,0,3.68-9.23.39-11.12-3-15.55-11.75-16.14-14.52-14.42,0-3.52-2.57-3.22-2.57-3.22,0,0,9.61-5.56,9.96-5.71,2.06-.87,4.75-.56,7.69,1.14Z"/>
    <path class="st5" d="M126.65,175.01c6.5,3.75,11.76,12.87,11.76,20.38,0,3.35-1.05,5.81-2.79,7.18-.04.03,0,.01-.9.54,0-.01.17-.15.19-.16,1.74-1.36,2.79-3.82,2.79-7.18,0-7.5-5.27-16.63-11.76-20.38-2.94-1.7-5.63-2-7.69-1.14h0c.77-.44.64-.35.71-.38,2.06-.87,4.75-.56,7.69,1.14Z"/>
    <g>
      <polygon class="st5" points="118.89 174.87 120.77 173.72 121.43 173.75 119.31 175.18 117.26 175.74 116.01 176.64 115.22 176.65 116.9 175.53 118.89 174.87"/>
      <polygon class="st5" points="121.2 175.24 123.08 174.1 123.74 174.12 121.62 175.55 119.57 176.12 118.32 177.01 117.53 177.02 119.21 175.9 121.2 175.24"/>
      <polygon class="st5" points="123.42 176.08 125.3 174.93 125.95 174.95 123.84 176.39 121.78 176.95 120.54 177.84 119.74 177.86 121.43 176.73 123.42 176.08"/>
      <polygon class="st5" points="125.56 177.26 127.44 176.11 128.09 176.14 125.97 177.57 123.92 178.13 122.68 179.03 121.88 179.04 123.57 177.92 125.56 177.26"/>
      <polygon class="st5" points="127.56 178.89 129.44 177.75 130.09 177.77 127.98 179.2 125.92 179.77 124.68 180.66 123.88 180.67 125.57 179.55 127.56 178.89"/>
      <polygon class="st5" points="129.46 180.83 131.34 179.68 131.99 179.71 129.88 181.14 127.82 181.7 126.39 182.78 125.78 182.61 127.47 181.49 129.46 180.83"/>
      <polygon class="st5" points="131.36 183.05 133.18 182.04 133.83 182.07 131.78 183.36 129.65 183.95 127.89 185.15 127.45 184.93 129.3 183.73 131.36 183.05"/>
      <polygon class="st5" points="132.7 185.3 134.52 184.29 135.18 184.32 133.12 185.61 131 186.2 129.23 187.4 128.79 187.18 130.64 185.98 132.7 185.3"/>
      <polygon class="st5" points="133.99 188.01 135.89 187.15 136.54 187.23 134.38 188.35 132.22 188.76 130.36 189.81 129.94 189.56 131.88 188.52 133.99 188.01"/>
      <polygon class="st5" points="135.33 190.78 137.21 189.77 137.37 190.23 135.59 191.14 133.14 191.48 131.14 192.38 130.79 192.03 132.92 191.17 135.33 190.78"/>
      <polygon class="st5" points="135.95 193.37 137.8 192.31 137.97 192.76 136.22 193.73 133.79 194.14 131.81 195.1 131.45 194.76 133.55 193.84 135.95 193.37"/>
      <polygon class="st5" points="136.23 195.93 138.15 195.01 138.28 195.46 136.47 196.3 134.01 196.54 131.97 197.35 131.64 196.99 133.8 196.22 136.23 195.93"/>
      <polygon class="st5" points="136.04 198.2 137.93 197.21 138.08 197.66 136.3 198.56 133.85 198.89 131.84 199.78 131.5 199.43 133.63 198.58 136.04 198.2"/>
      <polygon class="st5" points="135.35 200.51 137.25 199.54 137.4 200 135.61 200.88 133.15 201.16 131.13 202.02 130.79 201.67 132.93 200.85 135.35 200.51"/>
      <polygon class="st5" points="132.68 203 134.95 202.45 135.9 201.86 136.31 201.62 135.14 202.78 132.83 203.3 131.51 204.07 131.87 203.38 132.68 203"/>
    </g>
    <path class="st23" d="M119,177.31c-.12.7-.19,1.46-.19,2.27,0,7.41,5.2,16.43,11.62,20.13.74.42,1.45.76,2.15,1.01-.97,5.71-5.72,7.74-11.44,4.44-6.42-3.71-11.62-12.72-11.62-20.13,0-6.57,4.08-9.67,9.47-7.72Z"/>
    <path class="st12" d="M122.26,181.68c4.55,2.63,8.26,9.05,8.26,14.31s-3.71,7.4-8.26,4.77c-4.55-2.63-8.26-9.05-8.26-14.31s3.71-7.4,8.26-4.77Z"/>
    <g>
      <path class="st5" d="M121.3,172.47c.22-.12.42-.24.59-.33l-.28.67-1.24.89h-.8s1.69-1.11,1.69-1.11l.04-.13Z"/>
      <path class="st5" d="M124.25,171.49l.28-.2c.21-.02.43-.03.65-.02l-.57.38-.61,1.47-1.24.89-.55-.15,1.44-.96.59-1.42Z"/>
      <path class="st5" d="M126.69,171.84l.47-.29c.19.05.39.11.58.17l-.63.43-.61,1.47-1.24.89h-.8s1.69-1.11,1.69-1.11l.54-1.57Z"/>
      <path class="st5" d="M128.74,172.98l.82-.5c.15.08.3.15.45.24l-.85.58-.61,1.47-1.24.89h-.8s1.69-1.11,1.69-1.11l.54-1.57Z"/>
      <path class="st5" d="M130.77,174.53l1.06-.65c.12.09.25.18.37.27l-1.02.69-.61,1.47-1.24.89-.7-.05,1.59-1.06.54-1.57Z"/>
      <path class="st5" d="M132.87,176.11l.95-.58c.11.1.22.21.32.31l-.86.58-.61,1.47-1.43,1.08-.61-.17,1.69-1.12.54-1.57Z"/>
      <path class="st5" d="M134.93,178.43l1.06-.59c.09.11.18.22.26.33l-.9.57-.68,1.5-1.76,1.2-.44-.22,1.85-1.2.62-1.59Z"/>
      <path class="st5" d="M136.4,180.59l1.15-.64c.08.11.16.23.23.34l-.97.61-.68,1.5-1.76,1.2-.44-.22,1.85-1.2.62-1.59Z"/>
      <path class="st5" d="M137.91,183.52l1.38-.62c.06.12.12.24.18.36l-1.17.61-.72,1.32-1.85,1.05-.42-.25,1.94-1.04.66-1.42Z"/>
      <path class="st5" d="M139.61,186.32l.98-.52c.05.14.11.29.16.43l-.87.45-1,1.25-2,.9-.35-.35,2.13-.86.97-1.31Z"/>
      <path class="st5" d="M140.25,188.92l1.13-.64c.04.15.08.31.12.46l-.97.54-.99,1.32-1.98.96-.36-.34,2.1-.92.95-1.38Z"/>
      <path class="st5" d="M140.91,191.75l1.04-.5c.02.16.04.32.05.48l-.85.39-1.01,1.14-2.04.82-.33-.36,2.16-.77.98-1.2Z"/>
      <path class="st5" d="M140.9,194.26l1.16-.61c0,.18-.01.36-.02.53l-.88.45-1,1.24-2.01.89-.35-.35,2.13-.85.97-1.29Z"/>
      <path class="st5" d="M140.61,196.47l1.21-.61c-.04.2-.08.39-.13.58l-.83.41-1.01,1.2-2.02.86-.34-.36,2.14-.81.97-1.26Z"/>
      <path class="st5" d="M138.41,199.98l1.43-1.08,1.03-.37c-.13.23-.26.44-.4.64l-.5.15-1.44,1.07-1.78.91.35-.69,1.31-.63Z"/>
    </g>
    <path class="st0" d="M122.27,182.47c4.16,2.4,7.54,8.25,7.54,13.06,0,4.81-3.38,6.76-7.54,4.35-4.16-2.4-7.54-8.25-7.54-13.06s3.38-6.76,7.54-4.35Z"/>
    <path class="st2" d="M122.27,187.6c1.71.99,3.1,3.4,3.1,5.38s-1.39,2.78-3.1,1.79c-1.71-.99-3.1-3.4-3.1-5.38s1.39-2.78,3.1-1.79Z"/>
    <g>
      <path class="st16" d="M123.27,189.26c.21.22.3.55.21.74-.09.19-.33.16-.53-.06-.21-.22-.3-.55-.21-.74.09-.19.33-.16.53.06Z"/>
      <path class="st16" d="M121.25,188.71c.16.27.16.57,0,.67-.16.09-.41-.05-.57-.32-.16-.27-.16-.57,0-.67.16-.09.41.05.57.32Z"/>
      <path class="st16" d="M120.47,190.61c.2.01.44.26.54.54.09.29,0,.51-.2.5-.2-.01-.44-.26-.54-.54-.09-.29,0-.51.2-.5Z"/>
      <path class="st16" d="M122.55,192.96c.22.05.44.33.5.61.06.28-.07.47-.28.42-.22-.05-.44-.33-.5-.61-.06-.28.06-.47.28-.42Z"/>
      <path class="st16" d="M124.1,192.08c.22.18.36.51.31.74-.05.23-.26.26-.48.08-.22-.18-.36-.51-.31-.74.05-.23.26-.26.48-.08Z"/>
    </g>
    <g>
      <path class="st16" d="M122.27,184.16c1.04.6,1.45,1.08,1.45,1.54,0,.62-.55,1.93-1.45,1.41-.9-.52-1.43-2.45-1.42-3.06,0-.46.38-.49,1.42.12Z"/>
      <path class="st16" d="M125.19,187.25c.28-.16.7.21,1.44,1.49.74,1.28.88,1.86.59,2.02-.37.23-1.76.12-2.4-.98-.64-1.1-.01-2.32.37-2.53Z"/>
      <path class="st16" d="M127.81,192.81c.4.23.61.79.61,1.99s-.21,1.55-.61,1.32c-.54-.3-1.94-1.76-1.94-2.8,0-1.04,1.41-.84,1.94-.52Z"/>
      <path class="st16" d="M124.82,195.66c.64-.37,2,1.14,2.38,1.8.28.49.16.9-.57,1.33-.74.43-1.17.33-1.46-.15-.38-.65-.98-2.6-.35-2.97Z"/>
      <path class="st16" d="M122.27,195.41c.9.52,1.43,2.45,1.42,3.06,0,.46-.38.49-1.42-.12-1.04-.6-1.45-1.08-1.45-1.54,0-.62.55-1.93,1.45-1.41Z"/>
      <path class="st16" d="M117.33,191.74c.37-.23,1.76-.12,2.4.98.64,1.1.01,2.32-.37,2.53-.28.16-.7-.21-1.44-1.49-.74-1.28-.88-1.86-.59-2.02Z"/>
      <path class="st16" d="M116.73,186.38c.54.3,1.94,1.76,1.94,2.8s-1.41.84-1.94.52c-.4-.23-.61-.79-.61-1.99s.21-1.55.61-1.32Z"/>
      <path class="st16" d="M117.93,183.72c.74-.43,1.17-.33,1.46.15.38.65.98,2.6.35,2.97-.64.37-2-1.14-2.38-1.8-.28-.49-.16-.9.57-1.33Z"/>
    </g>
    <path class="st5" d="M109.39,184.95c0,7.5,5.27,16.63,11.76,20.38,6.5,3.75,11.77.71,11.77-6.79,0-7.5-5.27-16.62-11.77-20.38-6.5-3.75-11.76-.71-11.76,6.79ZM112.89,186.98c0-5.26,3.71-7.4,8.26-4.77,4.55,2.63,8.26,9.05,8.26,14.31s-3.71,7.4-8.26,4.77c-4.55-2.63-8.26-9.05-8.26-14.31Z"/>
  </g>
  <g>
    <polyline class="st4" points="109.32 171.41 109.32 178.36 121.11 171.47"/>
    <polygon class="st4" points="66.26 152.54 78.06 145.65 72.22 143.31 66.26 145.6 66.26 152.54"/>
    <path class="st19" d="M55.29,126.44l123.25,75.55v15.98c0,.17,0,.35,0,.53l-37.87-22.25c0-.15,0-.31,0-.47,0-8.67-6.19-19.42-13.75-23.89-7.56-4.47-14.29.76-17.62,6.32-.11.19,0-.22,0,0l-13.54-7.79c0-.13,0-.25,0-.38,0-8.67-5.76-20.25-13.75-23.89-3.22-1.47-13.64-.37-15.77,6.97-.05.19-3.11-1.65-3.11-1.46l-7.87-4.53v-20.7Z"/>
    <g>
      <polygon class="st1" points="255.58 157.24 255.58 165.88 178.54 209.79 178.54 201.41 255.58 157.24"/>
      <polygon class="st15" points="255.58 157.82 116.93 77.28 40.23 121.45 178.54 201.99 255.58 157.82"/>
      <polygon class="st17" points="40.23 121.45 40.23 130.95 95.46 162.44 95.46 162.44 178.54 209.79 178.54 201.41 40.23 121.45"/>
    </g>
  </g>
  <g>
    <g>
      <polygon class="st22" points="184.2 191.15 65.32 122.52 65.32 55.15 184.2 123.78 184.2 191.15"/>
      <polygon class="st18" points="184.2 121.15 65.32 52.52 65.32 55.15 184.2 123.78 184.2 121.15"/>
      <g>
        <g>
          <g>
            <polygon class="st7" points="100.73 142.96 79.72 130.83 79.72 78.52 100.73 90.64 100.73 142.96"/>
            <polygon class="st18" points="98.97 141.94 81.48 131.84 81.48 81.81 98.97 91.91 98.97 141.94"/>
            <g>
              <path class="st3" d="M93.95,98.56c0,2.37-1.67,3.34-3.72,2.15-2.06-1.19-3.72-4.07-3.72-6.45s1.67-3.34,3.72-2.15c2.06,1.19,3.72,4.07,3.72,6.45Z"/>
              <path class="st9" d="M93.21,98.13c0,1.9-1.34,2.68-2.99,1.72-1.65-.95-2.99-3.27-2.99-5.17s1.34-2.68,2.99-1.72c1.65.95,2.99,3.27,2.99,5.17Z"/>
              <path class="st22" d="M91.19,96.96c0,.62-.43.87-.97.56-.53-.31-.97-1.06-.97-1.67s.43-.87.97-.56c.53.31.97,1.06.97,1.67Z"/>
            </g>
          </g>
          <g>
            <polygon class="st9" points="97.44 116.68 95.57 115.61 95.57 112.42 97.44 113.5 97.44 116.68"/>
            <path class="st9" d="M96.68,119.35l-.35-.2c-.42-.24-.76-.89-.76-1.45h0c0-.56.34-.82.76-.57l.35.2c.42.24.76.89.76,1.45h0c0,.56-.34.82-.76.57Z"/>
          </g>
        </g>
        <g>
          <g>
            <polygon class="st7" points="135.27 162.9 114.26 150.77 114.26 98.46 135.27 110.58 135.27 162.9"/>
            <polygon class="st18" points="133.51 161.88 116.02 151.78 116.02 101.75 133.51 111.85 133.51 161.88"/>
            <g>
              <path class="st3" d="M128.48,118.5c0,2.37-1.67,3.34-3.72,2.15-2.06-1.19-3.72-4.07-3.72-6.45s1.67-3.34,3.72-2.15c2.06,1.19,3.72,4.07,3.72,6.45Z"/>
              <path class="st9" d="M127.75,118.07c0,1.9-1.34,2.68-2.99,1.72-1.65-.95-2.99-3.27-2.99-5.17s1.34-2.68,2.99-1.72c1.65.95,2.99,3.27,2.99,5.17Z"/>
              <path class="st22" d="M125.73,116.9c0,.62-.43.87-.97.56-.53-.31-.97-1.06-.97-1.67s.43-.87.97-.56c.53.31.97,1.06.97,1.67Z"/>
            </g>
          </g>
          <g>
            <polygon class="st9" points="131.98 136.62 130.11 135.55 130.11 132.36 131.98 133.44 131.98 136.62"/>
            <path class="st9" d="M131.22,139.29l-.35-.2c-.42-.24-.76-.89-.76-1.45h0c0-.56.34-.82.76-.57l.35.2c.42.24.76.89.76,1.45h0c0,.56-.34.82-.76.57Z"/>
          </g>
        </g>
        <g>
          <g>
            <polygon class="st7" points="169.8 182.84 148.79 170.71 148.79 118.39 169.8 130.52 169.8 182.84"/>
            <polygon class="st18" points="168.04 181.82 150.55 171.72 150.55 121.69 168.04 131.79 168.04 181.82"/>
            <g>
              <path class="st3" d="M163.02,138.43c0,2.37-1.67,3.34-3.72,2.15-2.06-1.19-3.72-4.07-3.72-6.45s1.67-3.34,3.72-2.15c2.06,1.19,3.72,4.07,3.72,6.45Z"/>
              <path class="st9" d="M162.28,138.01c0,1.9-1.34,2.68-2.99,1.72-1.65-.95-2.99-3.27-2.99-5.17s1.34-2.68,2.99-1.72c1.65.95,2.99,3.27,2.99,5.17Z"/>
              <path class="st22" d="M160.26,136.84c0,.62-.43.87-.97.56-.53-.31-.97-1.06-.97-1.67s.43-.87.97-.56c.53.31.97,1.06.97,1.67Z"/>
            </g>
          </g>
          <g>
            <polygon class="st9" points="166.51 156.56 164.64 155.49 164.64 152.3 166.51 153.38 166.51 156.56"/>
            <path class="st9" d="M165.75,159.23l-.35-.2c-.42-.24-.76-.89-.76-1.45h0c0-.56.34-.82.76-.57l.35.2c.42.24.76.89.76,1.45h0c0,.56-.34.82-.76.57Z"/>
          </g>
        </g>
      </g>
    </g>
    <g>
      <polygon class="st21" points="184.2 121.15 244.14 86.54 125.26 17.91 65.33 52.52 184.2 121.15"/>
      <polygon class="st18" points="236.85 86.65 234.68 87.91 125.07 24.62 74.78 53.65 72.61 52.4 125.07 22.12 236.85 86.65"/>
    </g>
    <g>
      <polygon class="st7" points="184.2 191.15 244.14 156.54 244.14 89.17 184.2 123.78 184.2 191.15"/>
      <polygon class="st3" points="184.2 121.15 244.14 86.54 244.14 89.17 184.2 123.78 184.2 121.15"/>
    </g>
    <g class="st8">
      <path class="st6" d="M94.83,114.13s.05-.02.07-.02c-.03,0-.06.02-.09.03,0,0,0,0,.01,0Z"/>
      <g>
        <path class="st6" d="M97.22,115.02c0,.26-.09.44-.24.52l-.98.57s.02-.02.03-.03c.06-.06.1-.13.13-.23,0-.03.01-.06.02-.09,0-.04,0-.09,0-.14,0-.52-.36-1.15-.81-1.41-.13-.08-.26-.11-.37-.11-.04,0-.08,0-.11.01-.02,0-.05.01-.07.02l1-.58c.15-.08.35-.07.58.06.45.26.81.89.81,1.41Z"/>
        <path class="st6" d="M96.04,116.07s-.02.02-.03.03c-.01,0-.03.02-.05.03.03-.01.06-.04.08-.06Z"/>
      </g>
      <path class="st9" d="M96.2,115.61s0,.09,0,.14c0,.03,0,.06-.02.09-.02.1-.07.17-.13.23,0,.01-.02.02-.03.03-.01,0-.03.02-.05.03-.15.09-.35.08-.58-.05-.45-.26-.81-.89-.81-1.41,0-.27.1-.45.25-.53,0,0,0,0,.01,0,.02,0,.05-.02.07-.02.03,0,.07-.01.11-.01.11,0,.24.03.37.11.45.26.81.89.81,1.41Z"/>
    </g>
    <g class="st8">
      <path class="st6" d="M129.41,134.06s.05-.02.07-.02c-.03,0-.06.02-.09.03,0,0,0,0,.01,0Z"/>
      <g>
        <path class="st6" d="M131.8,134.94c0,.26-.09.44-.24.52l-.98.57s.02-.02.03-.03c.06-.06.1-.13.13-.23,0-.03.01-.06.02-.09,0-.04,0-.09,0-.14,0-.52-.36-1.15-.81-1.41-.13-.08-.26-.11-.37-.11-.04,0-.08,0-.11.01-.02,0-.05.01-.07.02l1-.58c.15-.08.35-.07.58.06.45.26.81.89.81,1.41Z"/>
        <path class="st6" d="M130.62,135.99s-.02.02-.03.03c-.01,0-.03.02-.05.03.03-.01.06-.04.08-.06Z"/>
      </g>
      <path class="st9" d="M130.77,135.54s0,.09,0,.14c0,.03,0,.06-.02.09-.02.1-.07.17-.13.23,0,.01-.02.02-.03.03-.01,0-.03.02-.05.03-.15.09-.35.08-.58-.05-.45-.26-.81-.89-.81-1.41,0-.27.1-.45.25-.53,0,0,0,0,.01,0,.02,0,.05-.02.07-.02.03,0,.07-.01.11-.01.11,0,.24.03.37.11.45.26.81.89.81,1.41Z"/>
    </g>
    <g class="st8">
      <path class="st6" d="M163.92,154.03s.05-.02.07-.02c-.03,0-.06.02-.09.03,0,0,0,0,.01,0Z"/>
      <g>
        <path class="st6" d="M166.31,154.92c0,.26-.09.44-.24.52l-.98.57s.02-.02.03-.03c.06-.06.1-.13.13-.23,0-.03.01-.06.02-.09,0-.04,0-.09,0-.14,0-.52-.36-1.15-.81-1.41-.13-.08-.26-.11-.37-.11-.04,0-.08,0-.11.01-.02,0-.05.01-.07.02l1-.58c.15-.08.35-.07.58.06.45.26.81.89.81,1.41Z"/>
        <path class="st6" d="M165.13,155.97s-.02.02-.03.03c-.01,0-.03.02-.05.03.03-.01.06-.04.08-.06Z"/>
      </g>
      <path class="st9" d="M165.29,155.51s0,.09,0,.14c0,.03,0,.06-.02.09-.02.1-.07.17-.13.23,0,.01-.02.02-.03.03-.01,0-.03.02-.05.03-.15.09-.35.08-.58-.05-.45-.26-.81-.89-.81-1.41,0-.27.1-.45.25-.53,0,0,0,0,.01,0,.02,0,.05-.02.07-.02.03,0,.07-.01.11-.01.11,0,.24.03.37.11.45.26.81.89.81,1.41Z"/>
    </g>
  </g>
  <polygon class="st4" points="178.54 209.79 255.58 165.88 255.58 172.65 178.55 218.5 178.54 209.79"/>
  <g>
    <g>
      <g>
        <path class="st14" d="M16.48,167.26h1.84c.18,0,.34-.16.34-.34v-24.11c0-.44-.68-.44-.68,0v24.11c.11-.11.23-.23.34-.34h-1.84c-.44,0-.44.68,0,.68h0Z"/>
        <path class="st14" d="M20.27,161.75h1.84c.18,0,.34-.16.34-.34v-23.83c0-.44-.68-.44-.68,0v23.83c.11-.11.23-.23.34-.34h-1.84c-.44,0-.44.68,0,.68h0Z"/>
        <path class="st14" d="M24.52,154.01h1.84c.18,0,.34-.16.34-.34v-22.83c0-.44-.68-.44-.68,0v22.83c.11-.11.23-.23.34-.34h-1.84c-.44,0-.44.68,0,.68h0Z"/>
        <path class="st14" d="M28.34,147.51h1.84c.18,0,.34-.16.34-.34v-22.83c0-.44-.68-.44-.68,0v22.83c.11-.11.23-.23.34-.34h-1.84c-.44,0-.44.68,0,.68h0Z"/>
        <path class="st14" d="M32.72,139.1h1.84c.18,0,.34-.16.34-.34v-22.83c0-.44-.68-.44-.68,0v22.83l.34-.34h-1.84c-.44,0-.44.68,0,.68h0Z"/>
        <path class="st14" d="M37.05,132.27h1.84c.18,0,.34-.16.34-.34-.02-1.8-.04-3.6-.06-5.4-.03-2.87-.07-11.75-.1-14.62,0-.66-.02-1.33-.02-1.99,0-.44-.69-.44-.68,0,.02,1.8.04,9.6.06,11.4.03,2.87.07,5.75.1,8.62,0,.66.02,1.33.02,1.99.11-.11.23-.23.34-.34h-1.84c-.44,0-.44.68,0,.68h0Z"/>
      </g>
      <path class="st22" d="M38,109.22c-.28.45-.56.91-.83,1.36-.75,1.21-1.49,2.43-2.24,3.64l-3.26,5.3c-1.3,2.12-2.6,4.23-3.9,6.35-1.39,2.26-2.77,4.51-4.16,6.77-1.35,2.2-2.7,4.4-4.05,6.6l-3.53,5.75c-.88,1.44-1.76,2.87-2.64,4.31-.46.75-.92,1.5-1.38,2.25-.16.27-.23.53-.23.85v10.65c0,1.05,1.63,1.05,1.63,0v-10.91c-.04.14-.07.27-.11.41.23-.38.47-.76.7-1.14.63-1.03,1.27-2.06,1.9-3.09.94-1.52,1.87-3.05,2.81-4.57,3.98-6.48,4.77-7.77,3.43-5.58,1.25-2.04,2.5-4.08,3.75-6.11,1.26-2.06,2.53-4.11,3.79-6.17,1.18-1.92,2.35-3.84,3.53-5.75.99-1.62,1.99-3.24,2.98-4.86.71-1.16,1.43-2.32,2.14-3.48.34-.55.7-1.1,1.02-1.66.01-.02.03-.05.04-.07.55-.9-.86-1.72-1.41-.82h0Z"/>
    </g>
    <path class="st13" d="M48.97,123.18"/>
    <path class="st13" d="M80.95,118.83"/>
    <g class="st8">
      <polygon class="st13" points="33.39 175.07 15.33 164.58 19.49 162.17 37.55 172.67 33.39 175.07"/>
      <polygon class="st13" points="37.54 167.89 19.48 157.39 23.64 154.98 41.7 165.48 37.54 167.89"/>
      <polygon class="st13" points="41.69 160.7 23.63 150.2 27.79 147.79 45.85 158.29 41.69 160.7"/>
      <polygon class="st13" points="50 151.11 45.84 153.51 37.54 148.69 35.93 147.75 27.78 143.01 31.94 140.61 50 151.11"/>
      <polygon class="st13" points="49.99 146.32 31.92 135.83 36.09 133.43 54.15 143.92 49.99 146.32"/>
      <polygon class="st13" points="54.14 139.14 36.07 128.64 40.24 126.24 58.3 136.74 54.14 139.14"/>
    </g>
    <polyline class="st10" points="62.17 135.36 57.5 143.96 41.08 174.24 32.62 179.27 24.02 174.4 15.34 169.36 15.33 164.58 33.39 175.07 37.55 172.67 19.49 162.17 19.48 157.39 37.54 167.89 41.7 165.48 23.64 154.98 23.63 150.2 41.69 160.7 45.85 158.29 27.79 147.79 27.78 143.01 45.84 153.51 50 151.11 31.94 140.61 31.92 135.83 49.99 146.32 54.15 143.92 36.09 133.43 36.09 132.45 36.07 128.64 54.14 139.14 58.3 136.74 58.3 136.73 40.25 126.24 40.24 121.46 62.7 134.44"/>
    <path class="st20" d="M42.67,147.06c-.02.41-1.5,1.04-3.36,1.44-.59.13-1.21.19-1.77.19l-1.61-.94c.76-.32,2.13-.65,3.38-.86,1.96-.34,3.39-.42,3.36.17Z"/>
    <g>
      <g>
        <path class="st14" d="M36.07,175.69h1.84c.18,0,.34-.16.34-.34v-22.11c0-.44-.68-.44-.68,0v22.11c.11-.11.23-.23.34-.34h-1.84c-.44,0-.44.68,0,.68h0Z"/>
        <path class="st14" d="M39.86,170.19h1.84c.18,0,.34-.16.34-.34v-20.83c0-.44-.68-.44-.68,0v20.83c.11-.11.23-.23.34-.34h-1.84c-.44,0-.44.68,0,.68h0Z"/>
        <path class="st14" d="M44.11,162.45h1.84c.18,0,.34-.16.34-.34v-20.83c0-.44-.68-.44-.68,0v20.83c.11-.11.23-.23.34-.34h-1.84c-.44,0-.44.68,0,.68h0Z"/>
        <path class="st14" d="M47.93,155.95h1.84c.18,0,.34-.16.34-.34v-20.83c0-.44-.68-.44-.68,0v20.83l.34-.34h-1.84c-.44,0-.44.68,0,.68h0Z"/>
        <path class="st14" d="M52.31,147.53h1.84c.18,0,.34-.16.34-.34v-20.83c0-.44-.68-.44-.68,0v20.83c.11-.11.23-.23.34-.34h-1.84c-.44,0-.44.68,0,.68h0Z"/>
        <path class="st14" d="M56.64,140.71h1.84c.18,0,.34-.16.34-.34-.02-1.8-.04-3.6-.06-5.4-.03-2.87-.07-9.75-.1-12.62,0-.66-.02-1.33-.02-1.99,0-.44-.68-.44-.68,0,.02,1.8.04,7.6.06,9.4.03,2.87.07,5.75.1,8.62,0,.66.02,1.33.02,1.99l.34-.34h-1.84c-.44,0-.44.68,0,.68h0Z"/>
      </g>
      <path class="st22" d="M57.59,119.94l-.83,1.36c-.75,1.21-1.49,2.43-2.24,3.64-1.09,1.77-2.17,3.54-3.26,5.3-1.3,2.12-2.6,4.23-3.9,6.35-1.39,2.26-2.77,4.51-4.16,6.77-1.35,2.2-2.7,4.4-4.05,6.6-1.18,1.92-2.35,3.83-3.53,5.75-.88,1.44-1.76,2.87-2.64,4.31-.46.75-.92,1.5-1.38,2.25-.16.27-.23.53-.23.85v8.36c0,1.05,1.63,1.05,1.63,0v-8.61c-.04.14-.07.27-.11.41.23-.38.47-.76.7-1.14.63-1.03,1.27-2.06,1.9-3.09l2.81-4.57c1.14-1.86,2.28-3.72,3.43-5.58,1.25-2.04,2.5-4.08,3.75-6.11,1.26-2.06,2.53-4.11,3.79-6.17,1.18-1.92,2.35-3.84,3.53-5.75.99-1.62,1.99-3.24,2.98-4.86.71-1.16,1.43-2.32,2.14-3.48.34-.55.7-1.1,1.02-1.66.01-.02.03-.05.04-.07.55-.9-.86-1.72-1.41-.82h0Z"/>
    </g>
  </g>
  <polygon class="st22" points="75.46 89.41 38.89 110.64 38.14 109.34 74.71 88.12 75.46 89.41"/>
  <path class="st14" d="M178.04,201.51v-11.58c0-.44.68-.44.68,0v12.07l-.68-.49Z"/>
  <path class="st14" d="M170.14,196.51v-11.58c0-.44.68-.44.68,0v12.07l-.68-.49Z"/>
  <path class="st14" d="M162.25,191.94v-11.58c0-.44.68-.44.68,0v12.07l-.68-.49Z"/>
  <path class="st14" d="M154.75,187.53v-11.58c0-.44.68-.44.68,0v12.07l-.68-.49Z"/>
  <path class="st14" d="M147.57,183.55v-11.58c0-.44.68-.44.68,0v12.07l-.68-.49Z"/>
  <path class="st14" d="M140.41,179.46v-11.58c0-.44.68-.44.68,0v12.07l-.68-.49Z"/>
  <path class="st14" d="M133.49,175.33v-11.58c0-.44.68-.44.68,0v12.07l-.68-.49Z"/>
  <path class="st14" d="M126.31,171.15v-11.58c0-.44.68-.44.68,0v12.07l-.68-.49Z"/>
  <path class="st14" d="M119.23,167.06v-11.58c0-.44.68-.44.68,0v12.07l-.68-.49Z"/>
  <path class="st14" d="M111.97,162.87v-11.58c0-.44.68-.44.68,0v12.07l-.68-.49Z"/>
  <path class="st14" d="M104.55,158.56v-11.58c0-.44.68-.44.68,0v12.07l-.68-.49Z"/>
  <path class="st14" d="M97.81,154.7v-11.58c0-.44.68-.44.68,0v12.07l-.68-.49Z"/>
  <path class="st14" d="M90.93,150.73v-11.58c0-.44.68-.44.68,0v12.07l-.68-.49Z"/>
  <path class="st14" d="M84.01,146.76v-11.58c0-.44.68-.44.68,0v12.07l-.68-.49Z"/>
  <path class="st14" d="M77.09,142.65v-11.58c0-.44.68-.44.68,0v12.07l-.68-.49Z"/>
  <path class="st14" d="M70.63,139.14v-11.58c0-.44.68-.44.68,0v12.07l-.68-.49Z"/>
  <path class="st14" d="M63.79,135.09v-11.58c0-.44.68-.44.68,0v12.07l-.68-.49Z"/>
  <polygon class="st22" points="178.17 190.05 57.34 120.5 58.1 119.21 178.93 188.76 178.17 190.05"/>
  <path class="st14" d="M187.58,196.79v-11.58c0-.44-.68-.44-.68,0v8.24c0,.94,0,2.88,0,3.83l.68-.49Z"/>
  <path class="st14" d="M195.26,192.56v-11.58c0-.44-.68-.44-.68,0v8.24c0,.94,0,2.88,0,3.83l.68-.49Z"/>
  <path class="st14" d="M202.94,188.07v-11.58c0-.44-.68-.44-.68,0v8.24c0,.94,0,2.88,0,3.83l.68-.49Z"/>
  <path class="st14" d="M210.62,183.65v-11.58c0-.44-.68-.44-.68,0v8.24c0,.94,0,2.88,0,3.83l.68-.49Z"/>
  <path class="st14" d="M218.05,179.33v-11.58c0-.44-.68-.44-.68,0v8.24c0,.94,0,2.88,0,3.83l.68-.49Z"/>
  <path class="st14" d="M225.49,175.14v-11.58c0-.44-.68-.44-.68,0v8.24c0,.94,0,2.88,0,3.83l.68-.49Z"/>
  <path class="st14" d="M232.92,170.86v-11.58c0-.44-.68-.44-.68,0v8.24c0,.94,0,2.88,0,3.83l.68-.49Z"/>
  <path class="st14" d="M240.36,166.49v-11.58c0-.44-.68-.44-.68,0v8.24c0,.94,0,2.88,0,3.83l.68-.49Z"/>
  <path class="st14" d="M247.79,162.16v-11.58c0-.44-.68-.44-.68,0v8.24c0,.94,0,2.88,0,3.83l.68-.49Z"/>
  <path class="st14" d="M255.58,157.82v-11.58c0-.44-.68-.44-.68,0v8.24c0,.94,0,2.88,0,3.83l.68-.49Z"/>
  <polygon class="st22" points="255.58 146.43 178.27 190.23 177.52 188.94 255.58 144.7 255.58 146.43"/>
  <polygon class="st22" points="255.58 144.7 244.14 138.23 244.14 139.63 255.58 146.06 255.58 144.7"/>
</svg>