<?xml version="1.0" encoding="UTF-8"?>
<svg id="Layer_1" xmlns="http://www.w3.org/2000/svg" version="1.1" viewBox="0 0 267.37 236.41">
  <!-- Generator: Adobe Illustrator 29.8.7, SVG Export Plug-In . SVG Version: 2.1.1 Build 1)  -->
  <defs>
    <style>
      .st0 {
        fill: #f1f1f1;
      }

      .st1 {
        fill: #dbdada;
      }

      .st2 {
        fill: #231f20;
      }

      .st3 {
        fill: #4d4c4d;
      }

      .st4 {
        fill: #2c2c2c;
      }

      .st5 {
        fill: #d8d7ec;
      }

      .st6 {
        fill: #808184;
      }

      .st7 {
        isolation: isolate;
      }

      .st8 {
        fill: #b0afd7;
      }

      .st9 {
        fill: #4f4f4f;
      }

      .st10 {
        fill: #bbbdbf;
      }

      .st11 {
        fill: #a4a3a3;
      }

      .st12 {
        fill: #5e7280;
      }

      .st13 {
        fill: #5e5e5e;
      }

      .st14 {
        fill: #929497;
      }

      .st15 {
        fill: #e6e7e8;
      }

      .st16 {
        fill: #3b4952;
      }

      .st17 {
        fill: #8488bd;
      }

      .st18 {
        fill: #1a1a1a;
      }
    </style>
  </defs>
  <rect class="st3" x="41.88" y="133.31" width="1.78" height="22.33"/>
  <rect class="st3" x="163.28" y="203.19" width="1.78" height="22.33"/>
  <rect class="st3" x="239.85" y="161.99" width="1.78" height="22.33"/>
  <polygon class="st3" points="42.4 145.06 25.74 90.07 30.3 86.28 118.65 87.56 113.34 92.02 32.22 91.18 46.92 140.82 42.4 145.06"/>
  <path class="st2" d="M76.64,165.13l9.12-5.9,20.29,12.49s-1.62-8.16-8.69-13.1c-4.99-3.49-10.41-4.33-15.34-1.69s-5.38,8.21-5.38,8.21Z"/>
  <g>
    <path class="st9" d="M97.79,157.9c6.5,3.75,11.76,12.87,11.76,20.38,0,3.35-1.05,5.81-2.79,7.18-.18.14-9.93,5.79-9.93,5.79,0,0,3.68-9.23.39-11.12-3-15.55-11.75-16.14-14.52-14.42,0-3.52-2.57-3.22-2.57-3.22,0,0,9.61-5.56,9.96-5.71,2.06-.87,4.75-.56,7.69,1.14Z"/>
    <path class="st4" d="M94.13,160.03c6.5,3.75,11.76,12.87,11.76,20.38,0,3.35-1.05,5.81-2.79,7.18-.04.03,0,.01-.9.54,0-.01.17-.15.19-.16,1.74-1.36,2.79-3.82,2.79-7.18,0-7.5-5.27-16.63-11.76-20.38-2.94-1.7-5.63-2-7.69-1.14h0c.77-.44.64-.35.71-.38,2.06-.87,4.75-.56,7.69,1.14Z"/>
    <g>
      <polygon class="st4" points="86.38 159.89 88.26 158.74 88.92 158.77 86.8 160.2 84.75 160.76 83.5 161.66 82.71 161.67 84.39 160.55 86.38 159.89"/>
      <polygon class="st4" points="88.69 160.26 90.57 159.12 91.23 159.14 89.11 160.58 87.06 161.14 85.81 162.03 85.02 162.04 86.7 160.92 88.69 160.26"/>
      <polygon class="st4" points="90.91 161.1 92.79 159.95 93.44 159.98 91.32 161.41 89.27 161.97 88.03 162.86 87.23 162.88 88.92 161.76 90.91 161.1"/>
      <polygon class="st4" points="93.05 162.28 94.92 161.13 95.58 161.16 93.46 162.59 91.41 163.15 90.17 164.05 89.37 164.06 91.06 162.94 93.05 162.28"/>
      <polygon class="st4" points="95.05 163.92 96.92 162.77 97.58 162.79 95.46 164.23 93.41 164.79 92.17 165.68 91.37 165.7 93.06 164.57 95.05 163.92"/>
      <polygon class="st4" points="96.95 165.85 98.83 164.7 99.48 164.73 97.37 166.16 95.31 166.73 93.88 167.8 93.27 167.63 94.96 166.51 96.95 165.85"/>
      <polygon class="st4" points="98.85 168.07 100.66 167.06 101.32 167.09 99.26 168.38 97.14 168.97 95.38 170.17 94.94 169.95 96.78 168.75 98.85 168.07"/>
      <polygon class="st4" points="100.19 170.32 102.01 169.31 102.67 169.34 100.61 170.63 98.48 171.22 96.72 172.42 96.28 172.2 98.13 171.01 100.19 170.32"/>
      <polygon class="st4" points="101.48 173.03 103.38 172.17 104.03 172.25 101.87 173.37 99.7 173.78 97.85 174.83 97.43 174.58 99.37 173.54 101.48 173.03"/>
      <polygon class="st4" points="102.82 175.8 104.7 174.8 104.85 175.25 103.08 176.16 100.63 176.5 98.63 177.4 98.28 177.05 100.41 176.19 102.82 175.8"/>
      <polygon class="st4" points="103.44 178.39 105.29 177.34 105.46 177.78 103.71 178.75 101.28 179.16 99.3 180.12 98.94 179.78 101.04 178.86 103.44 178.39"/>
      <polygon class="st4" points="103.71 180.95 105.63 180.03 105.77 180.48 103.96 181.33 101.5 181.56 99.46 182.37 99.13 182.01 101.29 181.24 103.71 180.95"/>
      <polygon class="st4" points="103.53 183.22 105.42 182.23 105.57 182.68 103.79 183.59 101.34 183.91 99.33 184.8 98.98 184.45 101.12 183.6 103.53 183.22"/>
      <polygon class="st4" points="102.84 185.53 104.74 184.56 104.89 185.02 103.09 185.9 100.64 186.18 98.62 187.04 98.28 186.69 100.42 185.87 102.84 185.53"/>
      <polygon class="st4" points="100.17 188.02 102.44 187.47 103.38 186.88 103.8 186.65 102.63 187.8 100.32 188.32 99 189.09 99.35 188.4 100.17 188.02"/>
    </g>
    <path class="st18" d="M86.49,162.33c-.12.7-.19,1.46-.19,2.27,0,7.41,5.2,16.43,11.62,20.13.74.42,1.45.76,2.15,1.01-.97,5.71-5.72,7.74-11.44,4.44-6.42-3.71-11.62-12.72-11.62-20.13,0-6.57,4.08-9.67,9.47-7.72Z"/>
    <path class="st11" d="M89.75,166.7c4.55,2.63,8.26,9.05,8.26,14.31s-3.71,7.4-8.26,4.77c-4.55-2.63-8.26-9.05-8.26-14.31s3.71-7.4,8.26-4.77Z"/>
    <g>
      <path class="st4" d="M88.79,157.49c.22-.12.42-.24.59-.33l-.28.67-1.24.89h-.8s1.69-1.11,1.69-1.11l.04-.13Z"/>
      <path class="st4" d="M91.74,156.51l.28-.2c.21-.02.43-.03.65-.02l-.57.38-.61,1.47-1.24.89-.55-.15,1.44-.96.59-1.42Z"/>
      <path class="st4" d="M94.18,156.86l.47-.29c.19.05.39.11.58.17l-.63.43-.61,1.47-1.24.89h-.8s1.69-1.11,1.69-1.11l.54-1.57Z"/>
      <path class="st4" d="M96.22,158l.82-.5c.15.08.3.15.45.24l-.85.58-.61,1.47-1.24.89h-.8s1.69-1.11,1.69-1.11l.54-1.57Z"/>
      <path class="st4" d="M98.26,159.55l1.06-.65c.12.09.25.18.37.27l-1.02.69-.61,1.47-1.24.89-.7-.05,1.59-1.06.54-1.57Z"/>
      <path class="st4" d="M100.36,161.13l.95-.58c.11.1.22.21.32.31l-.86.58-.61,1.47-1.43,1.08-.61-.17,1.69-1.12.54-1.57Z"/>
      <path class="st4" d="M102.41,163.45l1.06-.59c.09.11.18.22.26.33l-.9.57-.68,1.5-1.76,1.2-.44-.22,1.85-1.2.62-1.59Z"/>
      <path class="st4" d="M103.89,165.61l1.15-.64c.08.11.16.23.23.34l-.97.61-.68,1.5-1.76,1.2-.44-.22,1.85-1.2.62-1.59Z"/>
      <path class="st4" d="M105.4,168.54l1.38-.62c.06.12.12.24.18.36l-1.17.61-.72,1.32-1.85,1.05-.42-.25,1.94-1.04.66-1.42Z"/>
      <path class="st4" d="M107.1,171.35l.98-.52c.05.14.11.29.16.43l-.87.45-1,1.25-2,.9-.35-.35,2.13-.86.97-1.31Z"/>
      <path class="st4" d="M107.74,173.94l1.13-.64c.04.15.08.31.12.46l-.97.54-.99,1.32-1.98.96-.36-.34,2.1-.92.95-1.38Z"/>
      <path class="st4" d="M108.4,176.78l1.04-.5c.02.16.04.32.05.48l-.85.39-1.01,1.14-2.04.82-.33-.36,2.16-.77.98-1.2Z"/>
      <path class="st4" d="M108.38,179.28l1.16-.61c0,.18-.01.36-.02.53l-.88.45-1,1.24-2.01.89-.35-.35,2.13-.85.97-1.29Z"/>
      <path class="st4" d="M108.1,181.49l1.21-.61c-.04.2-.08.39-.13.58l-.83.41-1.01,1.2-2.02.86-.34-.36,2.14-.81.97-1.26Z"/>
      <path class="st4" d="M105.9,185l1.43-1.08,1.03-.37c-.13.23-.26.44-.4.64l-.5.15-1.44,1.07-1.78.91.35-.69,1.31-.63Z"/>
    </g>
    <path class="st0" d="M89.76,167.5c4.16,2.4,7.54,8.25,7.54,13.06s-3.38,6.76-7.54,4.35c-4.16-2.4-7.54-8.25-7.54-13.06s3.38-6.76,7.54-4.35Z"/>
    <path class="st1" d="M89.76,172.62c1.71.99,3.1,3.4,3.1,5.38s-1.39,2.78-3.1,1.79c-1.71-.99-3.1-3.4-3.1-5.38s1.39-2.78,3.1-1.79Z"/>
    <g>
      <path class="st13" d="M90.76,174.29c.21.22.3.55.21.74-.09.19-.33.16-.53-.06-.21-.22-.3-.55-.21-.74.09-.19.33-.16.53.06Z"/>
      <path class="st13" d="M88.74,173.73c.16.27.16.57,0,.67-.16.09-.41-.05-.57-.32-.16-.27-.16-.57,0-.67.16-.09.41.05.57.32Z"/>
      <path class="st13" d="M87.96,175.63c.2.01.44.26.54.54.09.29,0,.51-.2.5-.2-.01-.44-.26-.54-.54-.09-.29,0-.51.2-.5Z"/>
      <path class="st13" d="M90.03,177.98c.22.05.44.33.5.61.06.28-.07.47-.28.42-.22-.05-.44-.33-.5-.61-.06-.28.06-.47.28-.42Z"/>
      <path class="st13" d="M91.59,177.1c.22.18.36.51.31.74-.05.23-.26.26-.48.08-.22-.18-.36-.51-.31-.74.05-.23.26-.26.48-.08Z"/>
    </g>
    <g>
      <path class="st13" d="M89.76,169.18c1.04.6,1.45,1.08,1.45,1.54,0,.62-.55,1.93-1.45,1.41-.9-.52-1.43-2.45-1.42-3.06,0-.46.38-.49,1.42.12Z"/>
      <path class="st13" d="M92.68,172.27c.28-.16.7.21,1.44,1.49.74,1.28.88,1.86.59,2.02-.37.23-1.76.12-2.4-.98-.64-1.1-.01-2.32.37-2.53Z"/>
      <path class="st13" d="M95.3,177.83c.4.23.61.79.61,1.99s-.21,1.55-.61,1.32c-.54-.3-1.94-1.76-1.94-2.8s1.41-.84,1.94-.52Z"/>
      <path class="st13" d="M92.31,180.68c.64-.37,2,1.14,2.38,1.8.28.49.16.9-.57,1.33-.74.43-1.17.33-1.46-.15-.38-.65-.98-2.6-.35-2.97Z"/>
      <path class="st13" d="M89.76,180.43c.9.52,1.43,2.45,1.42,3.06,0,.46-.38.49-1.42-.12-1.04-.6-1.45-1.08-1.45-1.54,0-.62.55-1.93,1.45-1.41Z"/>
      <path class="st13" d="M84.82,176.76c.37-.23,1.76-.12,2.4.98.64,1.1.01,2.32-.37,2.53-.28.16-.7-.21-1.44-1.49-.74-1.28-.88-1.86-.59-2.02Z"/>
      <path class="st13" d="M84.22,171.4c.54.3,1.94,1.76,1.94,2.8s-1.41.84-1.94.52c-.4-.23-.61-.79-.61-1.99s.21-1.55.61-1.32Z"/>
      <path class="st13" d="M85.42,168.75c.74-.43,1.17-.33,1.46.15.38.65.98,2.6.35,2.97-.64.37-2-1.14-2.38-1.8-.28-.49-.16-.9.57-1.33Z"/>
    </g>
    <path class="st4" d="M76.88,169.97c0,7.5,5.27,16.63,11.76,20.38,6.5,3.75,11.77.71,11.77-6.79,0-7.5-5.27-16.62-11.77-20.38-6.5-3.75-11.76-.71-11.76,6.79ZM80.38,172c0-5.26,3.71-7.4,8.26-4.77,4.55,2.63,8.26,9.05,8.26,14.31,0,5.26-3.71,7.4-8.26,4.77-4.55-2.63-8.26-9.05-8.26-14.31Z"/>
  </g>
  <g>
    <g>
      <polygon class="st12" points="164.17 126.21 41.88 55.6 119.34 10.88 241.63 81.49 164.17 126.21"/>
      <polygon class="st16" points="226.82 81.2 222.97 83.42 119.85 23.88 60.54 58.13 56.68 55.89 119.85 19.43 226.82 81.2"/>
    </g>
    <g>
      <polygon class="st10" points="241.63 170.94 164.17 215.66 164.17 126.22 241.63 81.5 241.63 170.94"/>
      <g>
        <polygon class="st16" points="234.73 95.85 171.06 132.62 171.06 130.15 234.73 93.38 234.73 95.85"/>
        <polygon class="st16" points="234.73 101.78 171.06 138.55 171.06 136.07 234.73 99.31 234.73 101.78"/>
        <polygon class="st16" points="234.73 107.71 171.06 144.48 171.06 142 234.73 105.24 234.73 107.71"/>
        <polygon class="st16" points="234.73 113.64 171.06 150.41 171.06 147.93 234.73 111.17 234.73 113.64"/>
        <polygon class="st16" points="234.73 119.57 171.06 156.34 171.06 153.86 234.73 117.1 234.73 119.57"/>
        <polygon class="st16" points="234.73 125.5 171.06 162.26 171.06 159.79 234.73 123.03 234.73 125.5"/>
        <polygon class="st16" points="234.73 131.43 171.06 168.19 171.06 165.72 234.73 128.96 234.73 131.43"/>
        <polygon class="st16" points="234.73 137.36 171.06 174.12 171.06 171.65 234.73 134.89 234.73 137.36"/>
        <polygon class="st16" points="234.73 143.29 171.06 180.05 171.06 177.58 234.73 140.82 234.73 143.29"/>
        <polygon class="st16" points="234.73 149.22 171.06 185.98 171.06 183.51 234.73 146.75 234.73 149.22"/>
        <polygon class="st16" points="234.73 155.15 171.06 191.91 171.06 189.44 234.73 152.68 234.73 155.15"/>
        <polygon class="st16" points="234.73 161.08 171.06 197.84 171.06 195.37 234.73 158.61 234.73 161.08"/>
        <polygon class="st16" points="234.73 167.01 171.06 203.77 171.06 201.3 234.73 164.54 234.73 167.01"/>
      </g>
    </g>
    <g>
      <path class="st15" d="M164.16,126.22v89.44l-56.85-32.82c.04-6.98-.71-10.5-2.84-15.35-4.16-9.46-14.71-15.19-22.45-10.57-2.84,1.69-4.79,4.31-5.38,8.21l-34.77-20.07V55.62l122.29,70.6Z"/>
      <g>
        <g>
          <polygon class="st6" points="75.25 164.32 50.25 149.89 50.25 81.45 75.25 95.88 75.25 164.32"/>
          <g>
            <polygon class="st10" points="72.56 125.72 52.94 114.4 52.94 86.19 72.56 97.51 72.56 125.72"/>
            <polygon class="st10" points="72.56 159.58 52.94 148.26 52.94 120.05 72.56 131.37 72.56 159.58"/>
          </g>
        </g>
        <g>
          <polygon class="st6" points="155.8 210.83 130.8 196.39 130.8 127.95 155.8 142.39 155.8 210.83"/>
          <g>
            <polygon class="st10" points="153.11 172.23 133.49 160.9 133.49 132.69 153.11 144.02 153.11 172.23"/>
            <polygon class="st10" points="153.11 206.09 133.49 194.76 133.49 166.55 153.11 177.88 153.11 206.09"/>
          </g>
        </g>
      </g>
    </g>
    <g class="st7">
      <polygon class="st17" points="135.3 163.27 135.3 164.67 134.25 165.28 134.25 163.88 135.3 163.27"/>
      <polygon class="st5" points="135.3 163.27 134.25 163.88 138.35 166.24 137.09 166.98 131.28 163.62 133.59 162.28 135.3 163.27"/>
      <polygon class="st17" points="138.35 166.24 138.35 167.64 137.08 168.38 137.09 166.98 138.35 166.24"/>
      <polygon class="st8" points="137.09 166.98 137.08 168.38 131.28 165.03 131.28 163.62 137.09 166.98"/>
    </g>
    <g class="st7">
      <polygon class="st5" points="72.56 126.86 70.25 128.2 64.44 124.85 65.7 124.11 69.8 126.48 70.85 125.87 72.56 126.86"/>
      <polygon class="st17" points="72.56 126.86 72.55 128.26 70.24 129.6 70.25 128.2 72.56 126.86"/>
      <polygon class="st8" points="70.25 128.2 70.24 129.6 64.44 126.25 64.44 124.85 70.25 128.2"/>
    </g>
  </g>
  <polygon class="st14" points="50.25 149.89 41.88 155.37 67.34 170.7 75.25 164.32 50.25 149.89"/>
  <polygon class="st6" points="41.88 155.37 41.88 160.3 67.34 175.47 67.34 170.7 41.88 155.37"/>
  <polygon class="st14" points="130.8 196.44 122.43 201.92 147.89 217.26 155.8 210.88 130.8 196.44"/>
  <polygon class="st6" points="122.43 201.92 122.43 206.85 147.89 222.02 147.89 217.26 122.43 201.92"/>
  <rect class="st3" x="25.83" y="90.34" width="1.78" height="22.33"/>
</svg>