<?xml version="1.0" encoding="UTF-8"?>
<svg id="Layer_1" xmlns="http://www.w3.org/2000/svg" version="1.1" viewBox="0 0 267.37 236.41">
  <!-- Generator: Adobe Illustrator 29.8.7, SVG Export Plug-In . SVG Version: 2.1.1 Build 1)  -->
  <defs>
    <style>
      .st0 {
        fill: #d8d7ec;
      }

      .st1 {
        fill: #2b353b;
      }

      .st2 {
        isolation: isolate;
      }

      .st3 {
        fill: #b0afd7;
      }

      .st4 {
        fill: #5e7280;
      }

      .st5 {
        fill: #f0ac1e;
      }

      .st6 {
        fill: #3b4952;
      }

      .st7 {
        fill: #8488bd;
      }
    </style>
  </defs>
  <g>
    <polygon class="st4" points="156.1 131.14 33.81 60.54 111.27 15.82 233.56 86.42 156.1 131.14"/>
    <polygon class="st6" points="218.75 86.13 214.9 88.35 111.78 28.81 52.47 63.06 48.61 60.83 111.78 24.36 218.75 86.13"/>
  </g>
  <g>
    <polygon class="st1" points="233.56 175.87 156.1 220.59 156.1 131.15 233.56 86.43 233.56 175.87"/>
    <g>
      <polygon class="st6" points="226.67 100.79 162.99 137.55 162.99 135.08 226.67 98.32 226.67 100.79"/>
      <polygon class="st6" points="226.67 106.72 162.99 143.48 162.99 141.01 226.67 104.25 226.67 106.72"/>
      <polygon class="st6" points="226.67 112.65 162.99 149.41 162.99 146.94 226.67 110.18 226.67 112.65"/>
      <polygon class="st6" points="226.67 118.58 162.99 155.34 162.99 152.87 226.67 116.11 226.67 118.58"/>
      <polygon class="st6" points="226.67 124.51 162.99 161.27 162.99 158.8 226.67 122.03 226.67 124.51"/>
      <polygon class="st6" points="226.67 130.44 162.99 167.2 162.99 164.73 226.67 127.96 226.67 130.44"/>
      <polygon class="st6" points="226.67 136.37 162.99 173.13 162.99 170.66 226.67 133.89 226.67 136.37"/>
      <polygon class="st6" points="226.67 142.29 162.99 179.06 162.99 176.59 226.67 139.82 226.67 142.29"/>
      <polygon class="st6" points="226.67 148.22 162.99 184.99 162.99 182.52 226.67 145.75 226.67 148.22"/>
      <polygon class="st6" points="226.67 154.15 162.99 190.92 162.99 188.44 226.67 151.68 226.67 154.15"/>
      <polygon class="st6" points="226.67 160.08 162.99 196.85 162.99 194.37 226.67 157.61 226.67 160.08"/>
      <polygon class="st6" points="226.67 166.01 162.99 202.78 162.99 200.3 226.67 163.54 226.67 166.01"/>
      <polygon class="st6" points="226.67 171.94 162.99 208.71 162.99 206.23 226.67 169.47 226.67 171.94"/>
    </g>
  </g>
  <g>
    <g>
      <polygon class="st6" points="156.1 220.59 33.81 149.99 33.81 60.55 156.1 131.15 156.1 220.59"/>
      <g>
        <g>
          <polygon class="st3" points="67.18 169.25 42.18 154.82 42.18 86.38 67.18 100.82 67.18 169.25"/>
          <g>
            <polygon class="st6" points="64.49 130.65 44.87 119.33 44.87 91.12 64.49 102.45 64.49 130.65"/>
            <polygon class="st6" points="64.49 164.51 44.87 153.19 44.87 124.98 64.49 136.31 64.49 164.51"/>
          </g>
        </g>
        <g>
          <polygon class="st3" points="107.46 192.51 82.45 178.07 82.45 109.63 107.46 124.07 107.46 192.51"/>
          <g>
            <polygon class="st6" points="104.76 153.91 85.15 142.58 85.15 114.37 104.76 125.7 104.76 153.91"/>
            <polygon class="st6" points="104.76 187.76 85.15 176.44 85.15 148.23 104.76 159.56 104.76 187.76"/>
          </g>
        </g>
        <g>
          <polygon class="st3" points="147.73 215.76 122.73 201.32 122.73 132.88 147.73 147.32 147.73 215.76"/>
          <g>
            <polygon class="st6" points="145.04 177.16 125.42 165.83 125.42 137.63 145.04 148.95 145.04 177.16"/>
            <polygon class="st6" points="145.04 211.02 125.42 199.69 125.42 171.49 145.04 182.81 145.04 211.02"/>
          </g>
        </g>
      </g>
      <polygon class="st3" points="100.41 148.11 89.51 141.81 89.51 129.23 100.41 135.52 100.41 148.11"/>
      <polygon class="st6" points="98.52 144.84 91.39 140.73 91.39 132.49 98.52 136.61 98.52 144.84"/>
    </g>
    <path class="st3" d="M98.52,108.28c0,2.27-1.6,3.2-3.57,2.06-1.97-1.14-3.57-3.9-3.57-6.18s1.6-3.2,3.57-2.06,3.57,3.9,3.57,6.18Z"/>
    <path class="st5" d="M97.35,107.6c0,1.52-1.07,2.14-2.39,1.38-1.32-.76-2.39-2.61-2.39-4.14s1.07-2.14,2.39-1.38c1.32.76,2.39,2.61,2.39,4.14Z"/>
  </g>
  <g class="st2">
    <polygon class="st7" points="127.23 168.2 127.23 169.6 126.18 170.21 126.19 168.81 127.23 168.2"/>
    <polygon class="st0" points="127.23 168.2 126.19 168.81 130.29 171.17 129.02 171.91 123.22 168.56 125.53 167.21 127.23 168.2"/>
    <polygon class="st7" points="130.29 171.17 130.28 172.57 129.02 173.31 129.02 171.91 130.29 171.17"/>
    <polygon class="st3" points="129.02 171.91 129.02 173.31 123.21 169.96 123.22 168.56 129.02 171.91"/>
  </g>
  <g class="st2">
    <polygon class="st0" points="64.49 131.79 62.18 133.13 56.37 129.78 57.64 129.04 61.74 131.41 62.78 130.8 64.49 131.79"/>
    <polygon class="st7" points="64.49 131.79 64.49 133.19 62.17 134.53 62.18 133.13 64.49 131.79"/>
    <polygon class="st3" points="62.18 133.13 62.17 134.53 56.37 131.18 56.37 129.78 62.18 133.13"/>
  </g>
</svg>