<?xml version="1.0" encoding="UTF-8"?>
<svg id="Layer_1" xmlns="http://www.w3.org/2000/svg" version="1.1" viewBox="0 0 267.37 236.41">
  <!-- Generator: Adobe Illustrator 29.8.7, SVG Export Plug-In . SVG Version: 2.1.1 Build 1)  -->
  <defs>
    <style>
      .st0 {
        fill: #d8d7ec;
      }

      .st1 {
        fill: #b0afd7;
      }

      .st2 {
        fill: #4f75ba;
      }

      .st3 {
        fill: #8488bd;
      }

      .st4 {
        fill: #6c97cf;
      }
    </style>
  </defs>
  <g>
    <polygon class="st4" points="133.69 222.83 71.95 187.18 71.95 55.7 133.69 91.34 133.69 222.83"/>
    <polygon class="st2" points="127.23 211.93 78.41 183.74 78.41 66.59 127.23 94.78 127.23 211.93"/>
    <polygon class="st4" points="124.83 207.52 80.8 182.1 80.8 71 124.83 96.43 124.83 207.52"/>
    <polygon class="st1" points="133.69 84.85 71.95 49.21 71.95 55.7 133.69 91.34 133.69 84.85"/>
    <polygon class="st2" points="131.34 214.3 129.03 212.97 129.03 95.82 131.34 97.15 131.34 214.3"/>
    <polygon class="st2" points="74.3 181.37 76.61 182.71 76.61 65.56 74.3 64.22 74.3 181.37"/>
    <polygon class="st2" points="124.83 155.46 80.8 130.04 80.8 123.06 124.83 148.49 124.83 155.46"/>
    <path class="st2" d="M112.83,145.04c0,6.39-4.48,8.97-10.01,5.78-5.53-3.19-10.01-10.96-10.01-17.35s4.48-8.97,10.01-5.78c5.53,3.19,10.01,10.96,10.01,17.34Z"/>
    <path class="st4" d="M110.28,143.57c0,4.76-3.34,6.68-7.46,4.31-4.12-2.38-7.46-8.16-7.46-12.92s3.34-6.69,7.46-4.31c4.12,2.38,7.46,8.16,7.46,12.92Z"/>
    <g>
      <g>
        <path class="st2" d="M88.4,114.96l8.81,5.08c1.67.97,3.03-.06,3.03-2.29v-27.4c0-2.23-1.36-4.83-3.03-5.79l-8.81-5.08c-1.68-.97-3.03.06-3.03,2.29v27.4c0,2.23,1.36,4.83,3.03,5.79Z"/>
        <path class="st4" d="M90.05,113.41l5.52,3.18c1.67.97,3.03-.06,3.03-2.29v-22.4c0-2.23-1.36-4.83-3.03-5.79l-5.52-3.18c-1.67-.97-3.03.06-3.03,2.29v22.4c0,2.23,1.36,4.83,3.03,5.79Z"/>
      </g>
      <g>
        <path class="st2" d="M117.23,131.61l-8.81-5.08c-1.68-.97-3.03-3.56-3.03-5.79v-27.4c0-2.23,1.36-3.26,3.03-2.29l8.81,5.08c1.67.97,3.03,3.56,3.03,5.79v27.4c0,2.23-1.36,3.26-3.03,2.29Z"/>
        <path class="st4" d="M115.59,128.16l-5.52-3.18c-1.67-.97-3.03-3.56-3.03-5.79v-22.4c0-2.23,1.36-3.26,3.03-2.29l5.52,3.18c1.67.97,3.03,3.56,3.03,5.79v22.4c0,2.23-1.36,3.26-3.03,2.29Z"/>
      </g>
    </g>
    <g>
      <g>
        <path class="st2" d="M88.4,146.91l8.81,5.08c1.67.97,3.03,3.56,3.03,5.79v27.4c0,2.23-1.36,3.26-3.03,2.29l-8.81-5.08c-1.68-.97-3.03-3.56-3.03-5.79v-27.4c0-2.23,1.36-3.26,3.03-2.29Z"/>
        <path class="st4" d="M90.05,150.36l5.52,3.18c1.67.97,3.03,3.56,3.03,5.79v22.4c0,2.23-1.36,3.26-3.03,2.29l-5.52-3.18c-1.67-.97-3.03-3.56-3.03-5.79v-22.4c0-2.23,1.36-3.26,3.03-2.29Z"/>
      </g>
      <g>
        <path class="st2" d="M117.23,163.56l-8.81-5.08c-1.68-.97-3.03.06-3.03,2.29v27.4c0,2.23,1.36,4.83,3.03,5.79l8.81,5.08c1.67.97,3.03-.06,3.03-2.29v-27.4c0-2.23-1.36-4.83-3.03-5.79Z"/>
        <path class="st4" d="M115.59,165.11l-5.52-3.18c-1.67-.97-3.03.06-3.03,2.29v22.4c0,2.23,1.36,4.83,3.03,5.79l5.52,3.18c1.67.97,3.03-.06,3.03-2.29v-22.4c0-2.23-1.36-4.83-3.03-5.79Z"/>
      </g>
    </g>
  </g>
  <g>
    <g>
      <polygon class="st2" points="195.42 187.18 133.69 222.83 133.69 91.34 195.42 55.7 195.42 187.18"/>
      <g>
        <polygon class="st4" points="188.96 183.74 140.14 211.93 140.14 94.78 188.96 66.59 188.96 183.74"/>
        <polygon class="st2" points="186.57 182.1 142.54 207.52 142.54 96.43 186.57 71 186.57 182.1"/>
        <polygon class="st4" points="186.57 130.04 142.54 155.46 142.54 148.49 186.57 123.06 186.57 130.04"/>
        <path class="st4" d="M174.57,133.48c0,6.39-4.48,14.15-10.01,17.35-5.53,3.19-10.01.6-10.01-5.78s4.48-14.15,10.01-17.34c5.53-3.19,10.01-.6,10.01,5.78Z"/>
        <path class="st2" d="M172.01,134.96c0,4.76-3.34,10.54-7.46,12.92-4.12,2.38-7.46.45-7.46-4.31s3.34-10.54,7.46-12.92c4.12-2.38,7.46-.45,7.46,4.31Z"/>
        <g>
          <g>
            <path class="st4" d="M150.14,131.61l8.81-5.08c1.67-.97,3.03-3.56,3.03-5.79v-27.4c0-2.23-1.36-3.26-3.03-2.29l-8.81,5.08c-1.68.97-3.03,3.56-3.03,5.79v27.4c0,2.23,1.36,3.26,3.03,2.29Z"/>
            <path class="st2" d="M151.78,128.16l5.52-3.18c1.68-.97,3.03-3.56,3.03-5.79v-22.4c0-2.23-1.36-3.26-3.03-2.29l-5.52,3.18c-1.67.97-3.03,3.56-3.03,5.79v22.4c0,2.23,1.36,3.26,3.03,2.29Z"/>
          </g>
          <g>
            <path class="st4" d="M178.97,114.96l-8.81,5.08c-1.67.97-3.03-.06-3.03-2.29v-27.4c0-2.23,1.36-4.83,3.03-5.79l8.81-5.08c1.67-.97,3.03.06,3.03,2.29v27.4c0,2.23-1.36,4.83-3.03,5.79Z"/>
            <path class="st2" d="M177.33,113.41l-5.52,3.18c-1.67.97-3.03-.06-3.03-2.29v-22.4c0-2.23,1.36-4.83,3.03-5.79l5.52-3.18c1.68-.97,3.03.06,3.03,2.29v22.4c0,2.23-1.36,4.83-3.03,5.79Z"/>
          </g>
        </g>
        <g>
          <g>
            <path class="st4" d="M150.14,163.56l8.81-5.08c1.67-.97,3.03.06,3.03,2.29v27.4c0,2.23-1.36,4.83-3.03,5.79l-8.81,5.08c-1.68.97-3.03-.06-3.03-2.29v-27.4c0-2.23,1.36-4.83,3.03-5.79Z"/>
            <path class="st2" d="M151.78,165.11l5.52-3.18c1.68-.97,3.03.06,3.03,2.29v22.4c0,2.23-1.36,4.83-3.03,5.79l-5.52,3.18c-1.67.97-3.03-.06-3.03-2.29v-22.4c0-2.23,1.36-4.83,3.03-5.79Z"/>
          </g>
          <g>
            <path class="st4" d="M178.97,146.91l-8.81,5.08c-1.67.97-3.03,3.56-3.03,5.79v27.4c0,2.23,1.36,3.26,3.03,2.29l8.81-5.08c1.67-.97,3.03-3.56,3.03-5.79v-27.4c0-2.23-1.36-3.26-3.03-2.29Z"/>
            <path class="st2" d="M177.33,150.36l-5.52,3.18c-1.67.97-3.03,3.56-3.03,5.79v22.4c0,2.23,1.36,3.26,3.03,2.29l5.52-3.18c1.68-.97,3.03-3.56,3.03-5.79v-22.4c0-2.23-1.36-3.26-3.03-2.29Z"/>
          </g>
        </g>
      </g>
    </g>
    <polygon class="st3" points="195.42 49.21 133.69 84.85 133.69 91.34 195.42 55.7 195.42 49.21"/>
  </g>
  <g>
    <polygon class="st0" points="195.42 49.22 133.69 13.58 71.95 49.22 133.69 84.87 195.42 49.22"/>
    <g>
      <polygon class="st1" points="91.32 51.43 88.57 49.85 134.77 23.18 137.51 24.76 91.32 51.43"/>
      <polygon class="st1" points="105.08 59.38 102.34 57.79 148.53 31.12 151.27 32.71 105.08 59.38"/>
      <polygon class="st1" points="118.84 67.32 116.1 65.74 162.29 39.07 165.04 40.65 118.84 67.32"/>
      <polygon class="st1" points="132.61 75.27 129.86 73.68 176.05 47.01 178.8 48.6 132.61 75.27"/>
    </g>
  </g>
</svg>