<?xml version="1.0" encoding="UTF-8"?>
<svg id="Layer_1" data-name="Layer 1" xmlns="http://www.w3.org/2000/svg" width="7719.94" height="3049.78" xmlns:xlink="http://www.w3.org/1999/xlink" viewBox="0 0 7719.94 3049.78">
  <defs>
    <style>
      .cls-1 {
        fill: #ca5555;
      }

      .cls-2 {
        fill: url(#linear-gradient-8);
      }

      .cls-3 {
        fill: url(#linear-gradient-7);
      }

      .cls-4 {
        fill: url(#linear-gradient-5);
      }

      .cls-5 {
        fill: url(#linear-gradient-6);
      }

      .cls-6 {
        fill: url(#linear-gradient-9);
      }

      .cls-7 {
        fill: url(#linear-gradient-4);
      }

      .cls-8 {
        fill: url(#linear-gradient-3);
      }

      .cls-9 {
        fill: url(#linear-gradient-2);
      }

      .cls-10 {
        fill: #ed8383;
      }

      .cls-11 {
        fill: url(#radial-gradient);
      }

      .cls-12 {
        fill: url(#linear-gradient);
      }

      .cls-13 {
        fill: #fff;
        opacity: .25;
      }

      .cls-14 {
        fill: #511717;
      }

      .cls-15 {
        fill: url(#linear-gradient-10);
      }

      .cls-16 {
        fill: url(#linear-gradient-11);
      }

      .cls-17 {
        fill: url(#linear-gradient-12);
      }

      .cls-18 {
        fill: url(#linear-gradient-13);
      }

      .cls-19 {
        fill: url(#linear-gradient-19);
      }

      .cls-20 {
        fill: url(#linear-gradient-14);
      }

      .cls-21 {
        fill: url(#linear-gradient-21);
      }

      .cls-22 {
        fill: url(#linear-gradient-20);
      }

      .cls-23 {
        fill: url(#linear-gradient-15);
      }

      .cls-24 {
        fill: url(#linear-gradient-16);
      }

      .cls-25 {
        fill: url(#linear-gradient-17);
      }

      .cls-26 {
        fill: url(#linear-gradient-18);
      }

      .cls-27 {
        opacity: .15;
      }

      .cls-28 {
        fill: #933b3b;
      }

      .cls-29 {
        fill: #b24949;
      }

      .cls-30 {
        fill: #e8e8e8;
      }
    </style>
    <radialGradient id="radial-gradient" cx="869.52" cy="817.73" fx="869.52" fy="817.73" r="729.8" gradientUnits="userSpaceOnUse">
      <stop offset="0" stop-color="#ca5555"/>
      <stop offset=".94" stop-color="#ca5555"/>
      <stop offset=".96" stop-color="#c55353"/>
      <stop offset=".97" stop-color="#b94d4d"/>
      <stop offset=".99" stop-color="#a54343"/>
      <stop offset="1" stop-color="#933b3b"/>
    </radialGradient>
    <linearGradient id="linear-gradient" x1="1551.92" y1="498.71" x2="1551.92" y2="436.26" gradientUnits="userSpaceOnUse">
      <stop offset="0" stop-color="#ca5555"/>
      <stop offset=".44" stop-color="#ca5555"/>
      <stop offset=".59" stop-color="#c05050"/>
      <stop offset=".84" stop-color="#a74444"/>
      <stop offset="1" stop-color="#933b3b"/>
    </linearGradient>
    <linearGradient id="linear-gradient-2" x1="187.13" x2="187.13" xlink:href="#linear-gradient"/>
    <linearGradient id="linear-gradient-3" x1="1461.24" y1="815.01" x2="1480.03" y2="815.01" gradientUnits="userSpaceOnUse">
      <stop offset="0" stop-color="#dcd7d4"/>
      <stop offset=".06" stop-color="#cdc8c6"/>
      <stop offset=".18" stop-color="#a6a2a4"/>
      <stop offset=".26" stop-color="#89858b"/>
      <stop offset=".52" stop-color="#f1f2f2"/>
      <stop offset=".59" stop-color="#e2e3e3"/>
      <stop offset=".71" stop-color="#bdbcbe"/>
      <stop offset=".87" stop-color="#827d82"/>
      <stop offset=".88" stop-color="#807b80"/>
      <stop offset="1" stop-color="#cfd1d2"/>
      <stop offset="1" stop-color="#a5a7aa"/>
    </linearGradient>
    <linearGradient id="linear-gradient-4" y1="-4316.61" y2="-4316.61" gradientTransform="translate(0 242.4) scale(1 -.12)" xlink:href="#linear-gradient-3"/>
    <linearGradient id="linear-gradient-5" y1="741.29" y2="741.29" xlink:href="#linear-gradient-3"/>
    <linearGradient id="linear-gradient-6" y1="757.9" y2="757.9" xlink:href="#linear-gradient-3"/>
    <linearGradient id="linear-gradient-7" y1="-331.29" y2="-331.29" gradientTransform="translate(0 424.9) scale(1 -1)" xlink:href="#linear-gradient-3"/>
    <linearGradient id="linear-gradient-8" y1="-447.23" y2="-447.23" gradientTransform="translate(0 424.9) scale(1 -1)" xlink:href="#linear-gradient-3"/>
    <linearGradient id="linear-gradient-9" y1="-5446.56" y2="-5446.56" gradientTransform="translate(0 242.4) scale(1 -.12)" xlink:href="#linear-gradient-3"/>
    <linearGradient id="linear-gradient-10" y1="873.83" y2="873.83" xlink:href="#linear-gradient-3"/>
    <linearGradient id="linear-gradient-11" y1="-463.83" y2="-463.83" gradientTransform="translate(0 424.9) scale(1 -1)" xlink:href="#linear-gradient-3"/>
    <linearGradient id="linear-gradient-12" y1="2714.25" y2="2714.25" xlink:href="#linear-gradient-3"/>
    <linearGradient id="linear-gradient-13" y1="-20507.94" y2="-20507.94" gradientTransform="translate(0 242.4) scale(1 -.12)" xlink:href="#linear-gradient-3"/>
    <linearGradient id="linear-gradient-14" y1="2640.53" y2="2640.53" xlink:href="#linear-gradient-3"/>
    <linearGradient id="linear-gradient-15" y1="2657.14" y2="2657.14" xlink:href="#linear-gradient-3"/>
    <linearGradient id="linear-gradient-16" y1="-2230.53" y2="-2230.53" gradientTransform="translate(0 424.9) scale(1 -1)" xlink:href="#linear-gradient-3"/>
    <linearGradient id="linear-gradient-17" y1="-2346.47" y2="-2346.47" gradientTransform="translate(0 424.9) scale(1 -1)" xlink:href="#linear-gradient-3"/>
    <linearGradient id="linear-gradient-18" y1="-21637.89" y2="-21637.89" gradientTransform="translate(0 242.4) scale(1 -.12)" xlink:href="#linear-gradient-3"/>
    <linearGradient id="linear-gradient-19" y1="2773.07" y2="2773.07" xlink:href="#linear-gradient-3"/>
    <linearGradient id="linear-gradient-20" y1="-2363.08" y2="-2363.08" gradientTransform="translate(0 424.9) scale(1 -1)" xlink:href="#linear-gradient-3"/>
    <linearGradient id="linear-gradient-21" x1="366.12" y1="1871.11" x2="366.12" y2="1665.66" gradientUnits="userSpaceOnUse">
      <stop offset="0" stop-color="#933b3b"/>
      <stop offset="1" stop-color="#ed8383"/>
    </linearGradient>
  </defs>
  <g>
    <path class="cls-30" d="M1650.34,347.55h-111C1391.08,137.32,1146.33,0,869.52,0S347.97,137.32,199.71,347.55h-111c-48.99,0-88.71,39.72-88.71,88.71h0s1739.05,0,1739.05,0h0c0-48.99-39.72-88.71-88.71-88.71Z"/>
    <rect class="cls-1" x="66.52" y="436.26" width="1606.01" height="2521.6"/>
    <circle class="cls-1" cx="869.52" cy="819.08" r="730.37"/>
    <circle class="cls-29" cx="869.52" cy="819.08" r="464.89"/>
    <path class="cls-14" d="M1233.79,571.4c-79.27-116.36-212.84-192.78-364.26-192.78s-284.99,76.41-364.26,192.78h-242.24v2386.46h1213V571.4h-242.24Z"/>
    <path class="cls-1" d="M1205.15,582.19c-74.39-105.2-196.98-173.88-335.62-173.88s-261.24,68.69-335.62,173.88h-260.09v2364.89h1191.43V582.19h-260.09Z"/>
    <rect class="cls-28" x="273.81" y="2922.64" width="1191.43" height="24.44"/>
    <polygon class="cls-29" points="273.81 2947.08 298.25 2922.64 298.25 606.62 273.81 582.19 273.81 2947.08"/>
    <rect class="cls-29" x="238.59" y="546.97" width="24.44" height="2410.9"/>
    <rect class="cls-29" x="66.52" y="436.26" width="24.44" height="2521.6"/>
    <polygon class="cls-29" points="1465.24 2947.08 1440.8 2922.64 1440.8 606.62 1465.24 582.19 1465.24 2947.08"/>
    <rect class="cls-29" x="1476.03" y="546.97" width="24.44" height="2410.9"/>
    <rect class="cls-29" x="1648.09" y="436.26" width="24.44" height="2521.6"/>
    <polygon class="cls-28" points="1648.09 2933.43 1672.53 2957.86 1476.03 2957.86 1500.46 2933.43 1648.09 2933.43"/>
    <polygon class="cls-28" points="90.96 2933.43 66.52 2957.86 263.02 2957.86 238.59 2933.43 90.96 2933.43"/>
    <g>
      <rect class="cls-1" x="66.52" y="2957.86" width="1606.01" height="91.92"/>
      <rect class="cls-10" x="66.52" y="2957.86" width="1606.01" height="24.44"/>
      <rect class="cls-28" x="66.52" y="3025.34" width="1606.01" height="24.44"/>
      <polygon class="cls-29" points="90.96 3025.34 66.52 3049.78 66.52 2957.86 90.96 2982.3 90.96 3025.34"/>
      <polygon class="cls-29" points="1648.09 3025.34 1672.53 3049.78 1672.53 2957.86 1648.09 2982.3 1648.09 3025.34"/>
    </g>
    <path class="cls-10" d="M1228.05,582.19c-76.91-116.17-208.77-192.78-358.52-192.78s-281.61,76.61-358.52,192.78c-5.27,7.96-10.29,16.11-15.03,24.44h28.42c.03-.05.07-.11.1-.16.49-.8.98-1.6,1.49-2.4.49-.79.99-1.58,1.5-2.37.96-1.52,1.94-3.03,2.93-4.54.41-.63.82-1.26,1.25-1.88.39-.6.78-1.19,1.19-1.79.38-.57.76-1.14,1.15-1.71,1.55-2.29,3.14-4.57,4.74-6.83.6-.86,1.21-1.72,1.84-2.57.04-.06.09-.12.13-.18,73.59-101.97,193.45-168.34,328.8-168.34s255.22,66.36,328.8,168.34c.04.06.09.12.13.18.63.86,1.24,1.71,1.84,2.57,1.61,2.26,3.19,4.53,4.74,6.83.39.57.77,1.14,1.15,1.71.41.6.8,1.19,1.19,1.79.43.62.84,1.25,1.25,1.88.98,1.51,1.96,3.02,2.93,4.54.51.79,1.01,1.57,1.5,2.37.51.8,1,1.6,1.49,2.4l.1.16h28.42c-4.74-8.32-9.75-16.47-15.03-24.44Z"/>
    <polygon class="cls-10" points="524.4 606.62 298.25 606.62 273.81 582.19 511 582.19 524.4 606.62"/>
    <polygon class="cls-10" points="1465.24 582.19 1440.8 606.62 1214.65 606.62 1228.05 582.19 1465.24 582.19"/>
    <path class="cls-11" d="M1491.65,436.26c-128.6-208.55-359.13-347.55-622.13-347.55S376,227.71,247.4,436.26c-12.45,20.19-23.94,41.02-34.41,62.45h70.32c11.8-21.56,24.78-42.41,38.81-62.45,120.78-172.39,320.93-285.1,547.4-285.1s426.62,112.71,547.4,285.1c14.04,20.04,27.01,40.88,38.81,62.45h70.32c-10.47-21.43-21.96-42.26-34.41-62.45Z"/>
    <polygon class="cls-12" points="1648.09 436.26 1648.09 498.71 1455.74 498.71 1491.65 436.26 1648.09 436.26"/>
    <polygon class="cls-9" points="247.4 436.26 283.31 498.71 90.96 498.71 90.96 436.26 247.4 436.26"/>
    <g>
      <rect class="cls-8" x="1461.24" y="758.75" width="18.79" height="112.53"/>
      <rect class="cls-7" x="1461.24" y="742.14" width="18.79" height="13.2"/>
      <polygon class="cls-4" points="1478.32 740.44 1462.94 740.44 1461.24 742.14 1480.03 742.14 1478.32 740.44"/>
      <polygon class="cls-13" points="1478.32 740.44 1462.94 740.44 1461.24 742.14 1480.03 742.14 1478.32 740.44"/>
      <polygon class="cls-5" points="1478.32 757.04 1462.94 757.04 1461.24 758.75 1480.03 758.75 1478.32 757.04"/>
      <polygon class="cls-13" points="1478.32 757.04 1462.94 757.04 1461.24 758.75 1480.03 758.75 1478.32 757.04"/>
      <polygon class="cls-3" points="1478.32 757.04 1462.94 757.04 1461.24 755.34 1480.03 755.34 1478.32 757.04"/>
      <polygon class="cls-27" points="1478.32 757.04 1462.94 757.04 1461.24 755.34 1480.03 755.34 1478.32 757.04"/>
      <polygon class="cls-2" points="1478.32 872.98 1462.94 872.98 1461.24 871.28 1480.03 871.28 1478.32 872.98"/>
      <polygon class="cls-27" points="1478.32 872.98 1462.94 872.98 1461.24 871.28 1480.03 871.28 1478.32 872.98"/>
      <rect class="cls-6" x="1461.24" y="874.68" width="18.79" height="13.2"/>
      <polygon class="cls-15" points="1478.32 872.98 1462.94 872.98 1461.24 874.68 1480.03 874.68 1478.32 872.98"/>
      <polygon class="cls-13" points="1478.32 872.98 1462.94 872.98 1461.24 874.68 1480.03 874.68 1478.32 872.98"/>
      <polygon class="cls-16" points="1478.32 889.59 1462.94 889.59 1461.24 887.88 1480.03 887.88 1478.32 889.59"/>
      <polygon class="cls-27" points="1478.32 889.59 1462.94 889.59 1461.24 887.88 1480.03 887.88 1478.32 889.59"/>
    </g>
    <g>
      <rect class="cls-17" x="1461.24" y="2657.99" width="18.79" height="112.53"/>
      <rect class="cls-18" x="1461.24" y="2641.38" width="18.79" height="13.2"/>
      <polygon class="cls-20" points="1478.32 2639.68 1462.94 2639.68 1461.24 2641.38 1480.03 2641.38 1478.32 2639.68"/>
      <polygon class="cls-13" points="1478.32 2639.68 1462.94 2639.68 1461.24 2641.38 1480.03 2641.38 1478.32 2639.68"/>
      <polygon class="cls-23" points="1478.32 2656.29 1462.94 2656.29 1461.24 2657.99 1480.03 2657.99 1478.32 2656.29"/>
      <polygon class="cls-13" points="1478.32 2656.29 1462.94 2656.29 1461.24 2657.99 1480.03 2657.99 1478.32 2656.29"/>
      <polygon class="cls-24" points="1478.32 2656.29 1462.94 2656.29 1461.24 2654.58 1480.03 2654.58 1478.32 2656.29"/>
      <polygon class="cls-27" points="1478.32 2656.29 1462.94 2656.29 1461.24 2654.58 1480.03 2654.58 1478.32 2656.29"/>
      <polygon class="cls-25" points="1478.32 2772.22 1462.94 2772.22 1461.24 2770.52 1480.03 2770.52 1478.32 2772.22"/>
      <polygon class="cls-27" points="1478.32 2772.22 1462.94 2772.22 1461.24 2770.52 1480.03 2770.52 1478.32 2772.22"/>
      <rect class="cls-26" x="1461.24" y="2773.93" width="18.79" height="13.2"/>
      <polygon class="cls-19" points="1478.32 2772.22 1462.94 2772.22 1461.24 2773.93 1480.03 2773.93 1478.32 2772.22"/>
      <polygon class="cls-13" points="1478.32 2772.22 1462.94 2772.22 1461.24 2773.93 1480.03 2773.93 1478.32 2772.22"/>
      <polygon class="cls-22" points="1478.32 2788.83 1462.94 2788.83 1461.24 2787.13 1480.03 2787.13 1478.32 2788.83"/>
      <polygon class="cls-27" points="1478.32 2788.83 1462.94 2788.83 1461.24 2787.13 1480.03 2787.13 1478.32 2788.83"/>
    </g>
    <path class="cls-21" d="M331.28,1665.66h-33.03v205.45h33.03c56.64,0,102.72-46.08,102.72-102.72s-46.08-102.72-102.72-102.72Z"/>
    <path class="cls-1" d="M331.28,1690.1h-33.03v156.57h33.03c43.24,0,78.29-35.05,78.29-78.29s-35.05-78.29-78.29-78.29Z"/>
    <polygon class="cls-28" points="1500.46 546.97 1476.03 571.4 1233.8 571.4 1246.5 546.97 1500.46 546.97"/>
    <polygon class="cls-28" points="238.59 546.97 263.02 571.4 505.25 571.4 492.55 546.97 238.59 546.97"/>
    <g>
      <g>
        <polygon class="cls-10" points="1601.22 1047.25 1625.66 1071.68 1522.9 1071.68 1547.33 1047.25 1601.22 1047.25"/>
        <polygon class="cls-28" points="1547.33 571.4 1522.9 546.97 1625.66 546.97 1601.22 571.4 1547.33 571.4"/>
        <polygon class="cls-29" points="1625.66 546.97 1601.22 571.4 1601.22 1047.25 1625.66 1071.68 1625.66 546.97"/>
        <polygon class="cls-29" points="1522.9 546.97 1547.33 571.4 1547.33 1047.25 1522.9 1071.68 1522.9 546.97"/>
      </g>
      <g>
        <polygon class="cls-28" points="1547.33 1322.05 1522.9 1297.61 1625.66 1297.61 1601.22 1322.05 1547.33 1322.05"/>
        <polygon class="cls-10" points="1601.22 1630.98 1625.66 1655.42 1522.9 1655.42 1547.33 1630.98 1601.22 1630.98"/>
        <polygon class="cls-29" points="1625.66 1297.61 1601.22 1322.05 1601.22 1630.98 1625.66 1655.42 1625.66 1297.61"/>
        <polygon class="cls-29" points="1522.9 1297.61 1547.33 1322.05 1547.33 1630.98 1522.9 1655.42 1522.9 1297.61"/>
      </g>
      <g>
        <polygon class="cls-28" points="1547.33 2489.52 1522.9 2465.08 1625.66 2465.08 1601.22 2489.52 1547.33 2489.52"/>
        <polygon class="cls-10" points="1601.22 2798.46 1625.66 2822.89 1522.9 2822.89 1547.33 2798.46 1601.22 2798.46"/>
        <polygon class="cls-29" points="1625.66 2465.08 1601.22 2489.52 1601.22 2798.46 1625.66 2822.89 1625.66 2465.08"/>
        <polygon class="cls-29" points="1522.9 2465.08 1547.33 2489.52 1547.33 2798.46 1522.9 2822.89 1522.9 2465.08"/>
      </g>
      <g>
        <polygon class="cls-28" points="1547.33 1905.78 1522.9 1881.35 1625.66 1881.35 1601.22 1905.78 1547.33 1905.78"/>
        <polygon class="cls-10" points="1601.22 2214.72 1625.66 2239.16 1522.9 2239.16 1547.33 2214.72 1601.22 2214.72"/>
        <polygon class="cls-29" points="1625.66 1881.35 1601.22 1905.78 1601.22 2214.72 1625.66 2239.16 1625.66 1881.35"/>
        <polygon class="cls-29" points="1522.9 1881.35 1547.33 1905.78 1547.33 2214.72 1522.9 2239.16 1522.9 1881.35"/>
      </g>
    </g>
    <g>
      <g>
        <polygon class="cls-10" points="191.14 1047.25 215.57 1071.68 112.81 1071.68 137.25 1047.25 191.14 1047.25"/>
        <polygon class="cls-28" points="137.25 571.4 112.81 546.97 215.57 546.97 191.14 571.4 137.25 571.4"/>
        <polygon class="cls-29" points="215.57 546.97 191.14 571.4 191.14 1047.25 215.57 1071.68 215.57 546.97"/>
        <polygon class="cls-29" points="112.81 546.97 137.25 571.4 137.25 1047.25 112.81 1071.68 112.81 546.97"/>
      </g>
      <g>
        <polygon class="cls-28" points="137.25 1322.05 112.81 1297.61 215.57 1297.61 191.14 1322.05 137.25 1322.05"/>
        <polygon class="cls-10" points="191.14 1630.98 215.57 1655.42 112.81 1655.42 137.25 1630.98 191.14 1630.98"/>
        <polygon class="cls-29" points="215.57 1297.61 191.14 1322.05 191.14 1630.98 215.57 1655.42 215.57 1297.61"/>
        <polygon class="cls-29" points="112.81 1297.61 137.25 1322.05 137.25 1630.98 112.81 1655.42 112.81 1297.61"/>
      </g>
      <g>
        <polygon class="cls-28" points="137.25 2489.52 112.81 2465.08 215.57 2465.08 191.14 2489.52 137.25 2489.52"/>
        <polygon class="cls-10" points="191.14 2798.46 215.57 2822.89 112.81 2822.89 137.25 2798.46 191.14 2798.46"/>
        <polygon class="cls-29" points="215.57 2465.08 191.14 2489.52 191.14 2798.46 215.57 2822.89 215.57 2465.08"/>
        <polygon class="cls-29" points="112.81 2465.08 137.25 2489.52 137.25 2798.46 112.81 2822.89 112.81 2465.08"/>
      </g>
      <g>
        <polygon class="cls-28" points="137.25 1905.78 112.81 1881.35 215.57 1881.35 191.14 1905.78 137.25 1905.78"/>
        <polygon class="cls-10" points="191.14 2214.72 215.57 2239.16 112.81 2239.16 137.25 2214.72 191.14 2214.72"/>
        <polygon class="cls-29" points="215.57 1881.35 191.14 1905.78 191.14 2214.72 215.57 2239.16 215.57 1881.35"/>
        <polygon class="cls-29" points="112.81 1881.35 137.25 1905.78 137.25 2214.72 112.81 2239.16 112.81 1881.35"/>
      </g>
    </g>
    <g>
      <polygon class="cls-29" points="1341.05 713.87 1316.62 738.31 1316.62 1309.83 1341.05 1334.26 1341.05 713.87"/>
      <polygon class="cls-29" points="397.99 713.87 422.43 738.31 422.43 1384.48 397.99 1408.91 397.99 713.87"/>
      <path class="cls-29" d="M599.71,738.31l5.88-16.02c9.76-26.61,23.5-51.55,40.83-74.14,17.17-22.37,37.52-42,60.5-58.32,47.67-33.88,103.9-51.79,162.61-51.79s114.94,17.91,162.61,51.79c22.98,16.33,43.33,35.95,60.5,58.32,17.33,22.59,31.07,47.53,40.83,74.14l5.88,16.02h177.27l24.44-24.44h-184.65c-42.88-116.88-155.14-200.27-286.88-200.27s-244.01,83.4-286.88,200.27h-184.65s24.44,24.44,24.44,24.44h177.27Z"/>
      <polygon class="cls-28" points="1139.34 738.31 1156.41 713.87 1341.05 713.87 1316.62 738.31 1139.34 738.31"/>
      <polygon class="cls-28" points="397.99 713.87 422.43 738.31 599.71 738.31 582.64 713.87 397.99 713.87"/>
    </g>
    <g>
      <polygon class="cls-10" points="397.99 1655.42 422.43 1630.98 1316.62 1630.98 1341.05 1655.42 397.99 1655.42"/>
      <polygon class="cls-29" points="1341.05 1259.54 1341.05 1655.42 1316.62 1630.98 1316.62 1283.98 1341.05 1259.54"/>
      <polygon class="cls-29" points="397.99 1297.61 397.99 1655.42 422.43 1630.98 422.43 1322.05 397.99 1297.61"/>
    </g>
    <g>
      <polygon class="cls-28" points="397.99 1881.35 422.43 1905.78 1316.62 1905.78 1341.05 1881.35 397.99 1881.35"/>
      <polygon class="cls-10" points="397.99 2239.16 422.43 2214.72 1316.62 2214.72 1341.05 2239.16 397.99 2239.16"/>
      <polygon class="cls-29" points="1341.05 1881.35 1341.05 2239.16 1316.62 2214.72 1316.62 1905.78 1341.05 1881.35"/>
      <polygon class="cls-29" points="397.99 1881.35 397.99 2239.16 422.43 2214.72 422.43 1905.78 397.99 1881.35"/>
    </g>
    <g>
      <polygon class="cls-28" points="397.99 2465.08 422.43 2489.52 1316.62 2489.52 1341.05 2465.08 397.99 2465.08"/>
      <polygon class="cls-10" points="397.99 2822.89 422.43 2798.46 1316.62 2798.46 1341.05 2822.89 397.99 2822.89"/>
      <polygon class="cls-29" points="1341.05 2465.08 1341.05 2822.89 1316.62 2798.46 1316.62 2489.52 1341.05 2465.08"/>
      <polygon class="cls-29" points="397.99 2465.08 397.99 2822.89 422.43 2798.46 422.43 2489.52 397.99 2465.08"/>
    </g>
  </g>
  <path class="cls-29" d="M871.7,809.32l-59.68,111.32c-6.77,12.1-18.91,10.98-31.04,4.22l-43.21-22.38,32.21,170.99c6.77,31.24-14.96,31.24-25.68,17.73l-75.41-84.42-12.24,42.87c-1.41,5.63-7.62,11.54-16.93,10.13l-95.36-20.05,25.05,91.06c5.36,20.26,9.54,28.65-5.41,33.99l-33.99,15.97,164.15,133.34c6.5,5.04,9.78,14.11,7.47,22.33l-14.37,47.15c56.52-6.52,107.16-16.32,163.71-22.35,4.99-.53,13.35,7.71,13.32,13.49l-7.49,172.73h27.48l-4.33-172.36c-.03-5.79,7.55-14.39,12.54-13.86,56.55,6.04,107.19,15.84,163.71,22.35l-14.37-47.15c-2.31-8.21.97-17.29,7.47-22.33l164.15-133.34-33.99-15.97c-14.96-5.34-10.77-13.73-5.41-33.99l25.05-91.06-95.36,20.05c-9.31,1.41-15.52-4.51-16.93-10.13l-12.24-42.87-75.41,84.42c-10.72,13.51-32.45,13.51-25.68-17.73l32.21-170.99-43.21,22.38c-12.13,6.76-24.27,7.88-31.04-4.22l-59.71-111.32Z"/>
  <g>
    <path class="cls-1" d="M2111.76,1748.58v-234.45c0-89.03,59.35-151.35,144.68-151.35s145.42,62.32,145.42,151.35v27.45h-86.81v-31.16c0-47.48-27.45-63.81-58.61-63.81s-57.87,15.58-57.87,63.81v241.12c0,47.48,27.45,63.81,57.87,63.81s58.61-15.58,58.61-63.81v-37.84h86.81v34.87c0,88.29-60.1,150.61-145.42,150.61s-144.68-62.32-144.68-150.61Z"/>
    <path class="cls-1" d="M2553.95,1369.45h93.48l123.9,523.06h-88.29l-22.26-102.39h-121.67l-23,102.39h-88.29l126.13-523.06ZM2645.95,1714.45l-45.26-217.38-46,217.38h91.26Z"/>
    <path class="cls-1" d="M2817.33,1369.45h81.61l122.42,309.38v-308.64h87.55v522.31h-81.61l-123.16-304.93v304.93h-86.81v-523.06Z"/>
    <path class="cls-1" d="M3281.77,1369.45h93.48l123.9,523.06h-88.29l-22.26-102.39h-121.67l-23,102.39h-88.29l126.13-523.06ZM3373.77,1714.45l-45.26-217.38-46,217.38h91.26Z"/>
    <path class="cls-1" d="M3545.15,1369.45h142.45c85.32,0,144.68,54.9,144.68,161v201.06c0,105.35-59.35,161-144.68,161h-142.45v-523.06ZM3677.21,1809.41c37.84,0,69-15.58,69-91.26v-182.51c0-51.93-20.03-82.35-69-82.35h-45.26v356.12h45.26Z"/>
    <path class="cls-1" d="M3995.49,1369.45h93.48l123.9,523.06h-88.29l-22.26-102.39h-121.67l-23,102.39h-88.29l126.13-523.06ZM4087.49,1714.45l-45.26-217.38-46,217.38h91.26Z"/>
    <path class="cls-1" d="M4356.8,1369.45h87.55l61.58,368.74,58.61-368.74h77.16l59.35,368.74,61.58-368.74h86.8l-100.16,523.06h-89.03l-57.13-357.61-57.13,357.61h-88.29l-100.9-523.06Z"/>
    <path class="cls-1" d="M4973.35,1369.45h93.48l123.9,523.06h-88.29l-22.26-102.39h-121.67l-23,102.39h-88.29l126.13-523.06ZM5065.35,1714.45l-45.26-217.38-46,217.38h91.26Z"/>
    <path class="cls-1" d="M5209.28,1749.32h86.06c0,49.71,28.93,68.26,63.06,68.26s57.87-20.03,57.87-54.9c0-90.52-201.06-135.03-201.06-265.61,0-81.61,55.65-135.03,140.97-135.03s140.97,56.39,140.97,146.16h-85.32c0-46-24.48-65.29-56.39-65.29s-53.42,18.55-53.42,49.71c0,92.74,199.58,125.38,199.58,264.12,0,86.06-51.93,143.19-143.19,143.19s-149.13-57.13-149.13-150.61Z"/>
    <path class="cls-1" d="M5563.17,1369.45h87.55v221.09h109.8v-221.09h86.8v523.06h-86.8v-225.55h-109.8v225.55h-87.55v-523.06Z"/>
    <path class="cls-1" d="M5934.14,1369.45h138c86.06,0,144.68,56.39,144.68,158.77v69c0,69.74-28.19,114.26-73.45,135.77l73.45,159.51h-94.97l-58.61-138h-41.55v138h-87.55v-523.06ZM6061.75,1671.42c36.35,0,69-14.1,69-77.16v-66.77c0-59.35-32.64-74.19-69-74.19h-40.06v218.13h40.06Z"/>
    <path class="cls-1" d="M6282.1,1748.58v-234.45c0-89.03,59.35-151.35,144.67-151.35s145.42,62.32,145.42,151.35v234.45c0,88.29-60.1,150.61-145.42,150.61s-144.67-62.32-144.67-150.61ZM6426.77,1815.35c28.94,0,58.61-15.58,58.61-63.81v-241.12c0-47.48-27.45-63.81-58.61-63.81s-57.87,15.58-57.87,63.81v241.12c0,47.48,27.45,63.81,57.87,63.81Z"/>
    <path class="cls-1" d="M6638.96,1748.58v-234.45c0-89.03,59.35-151.35,144.67-151.35s145.42,62.32,145.42,151.35v234.45c0,88.29-60.1,150.61-145.42,150.61s-144.67-62.32-144.67-150.61ZM6783.63,1815.35c28.94,0,58.61-15.58,58.61-63.81v-241.12c0-47.48-27.45-63.81-58.61-63.81s-57.87,15.58-57.87,63.81v241.12c0,47.48,27.45,63.81,57.87,63.81Z"/>
    <path class="cls-1" d="M7005.46,1369.45h86.06l94.23,319.03,94.22-319.03h86.06v523.06h-86.8v-287.87l-64.55,209.22h-58.61l-64.55-207.74v286.38h-86.06v-523.06Z"/>
    <path class="cls-1" d="M7427.62,1749.32h86.06c0,49.71,28.93,68.26,63.06,68.26s57.87-20.03,57.87-54.9c0-90.52-201.06-135.03-201.06-265.61,0-81.61,55.65-135.03,140.97-135.03s140.97,56.39,140.97,146.16h-85.32c0-46-24.48-65.29-56.39-65.29s-53.42,18.55-53.42,49.71c0,92.74,199.58,125.38,199.58,264.12,0,86.06-51.93,143.19-143.19,143.19s-149.13-57.13-149.13-150.61Z"/>
  </g>
</svg>